# This file uses centimeters as units for non-parametric coordinates.

mtllib Herbs.mtl
g default
v 4.887305 17.808790 -0.163886
v -4.887304 17.808790 -0.163886
v 4.887305 17.808790 0.163887
v -4.887304 17.808790 0.163887
v 4.997781 0.413460 1.284746
v -4.997781 0.413460 1.284746
v 4.997781 0.413460 -1.284745
v -4.997781 0.413460 -1.284745
v -4.415040 1.000000 1.284745
v 4.415040 1.000000 1.284745
v 4.415040 1.000000 -1.284745
v -4.415040 1.000000 -1.284745
v -4.698620 13.893645 0.163887
v -4.056934 13.893645 0.163887
v 4.056934 13.893645 0.163887
v 4.698621 13.893645 0.163887
v 4.698621 13.893644 -0.163886
v 4.056934 13.893644 -0.163886
v -4.056934 13.893644 -0.163886
v -4.698620 13.893644 -0.163886
v 3.267795 12.615158 0.561795
v 3.267795 2.955271 1.855959
v -3.267794 12.615158 0.561795
v -3.267794 2.955271 1.855959
v 3.267794 12.615158 -0.236753
v -3.267793 12.615158 -0.236753
v 3.267794 2.955272 -1.855958
v -3.267793 2.955272 -1.855958
v 4.803865 0.721029 0.000000
v 4.698620 13.893645 0.000000
v -4.698620 13.893645 0.000000
v -4.803864 0.721029 0.000000
v 0.000001 1.000000 -1.284745
v 0.000001 2.792717 -2.256093
v 0.000001 12.703136 -0.362648
v 0.000000 13.893644 -0.163886
v 0.000000 13.893645 0.163887
v 0.000001 12.703136 0.757766
v 0.000001 2.792717 2.256093
v 0.000001 1.000000 1.284745
v -2.207520 1.000000 -1.284745
v -1.633896 2.864933 -2.127167
v -1.633896 12.667951 -0.369638
v -2.028467 13.893644 -0.163886
v -1.633897 12.667951 0.727074
v -1.633897 2.792717 2.127167
v -2.207520 1.000000 1.284745
v 2.207521 1.000000 -1.284745
v 1.633897 2.864933 -2.127167
v 1.633897 12.667951 -0.369638
v 2.028467 13.893644 -0.163886
v 1.633898 12.667951 0.727074
v 1.633898 2.864933 2.127167
v 2.207521 1.000000 1.284745
vt 0.034643 0.803170
vt 0.065281 0.803167
vt 0.974695 0.990047
vt 0.935028 0.803248
vt 0.025647 0.990096
vt 0.492364 0.990061
vt 0.965667 0.803245
vt 0.547607 0.803289
vt 0.507977 0.990096
vt 0.516968 0.803292
vt 0.452702 0.803138
vt 0.483341 0.803136
vt 0.162136 0.803160
vt 0.153540 0.186886
vt 0.979882 0.158014
vt 0.952060 0.186003
vt 0.846655 0.186013
vt 0.530441 0.186047
vt 0.048136 0.186894
vt 0.020309 0.158892
vt 0.180971 0.744514
vt 0.102956 0.742080
vt 0.102921 0.279896
vt 0.180936 0.275413
vt 0.469755 0.186862
vt 0.497577 0.158856
vt 0.502614 0.158064
vt 0.897289 0.278254
vt 0.897340 0.741524
vt 0.819324 0.743748
vt 0.414983 0.279872
vt 0.415017 0.742057
vt 0.364349 0.186870
vt 0.258945 0.186878
vt 0.819271 0.273456
vt 0.585227 0.278287
vt 0.741318 0.803269
vt 0.258951 0.271881
vt 0.336967 0.275401
vt 0.337002 0.744502
vt 0.258988 0.746193
vt 0.741309 0.745379
vt 0.663294 0.743765
vt 0.741255 0.269782
vt 0.663240 0.270026
vt 0.635846 0.186035
vt 0.741251 0.186025
vt 0.585279 0.741556
vt 0.355847 0.803145
vt 0.258992 0.803152
vt 0.483093 0.152291
vt 0.646907 0.091947
vt 0.296103 0.136442
vt 0.483093 0.136654
vt 0.646907 0.099766
vt 0.018484 0.091258
vt 0.003731 0.029276
vt 0.003728 0.153203
vt 0.296105 0.144196
vt 0.483096 0.136571
vt 0.483096 0.152208
vt 0.646909 0.099702
vt 0.296106 0.136378
vt 0.018483 0.091257
vt 0.003725 0.153204
vt 0.003732 0.029275
vt 0.522833 0.004404
vt 0.996077 0.006116
vt 0.987067 0.066990
vt 0.531843 0.066990
vt 0.522833 0.006115
vt 0.996077 0.004403
vt 0.966952 0.128715
vt 0.966901 0.144414
vt 0.498732 0.142301
vt 0.498784 0.126601
vt 0.986726 0.068620
vt 0.532185 0.068620
vt 0.296103 0.144260
vt 0.646907 0.084129
vt 0.646909 0.091884
vt 0.646910 0.084065
vt 0.296103 0.152078
vt 0.296105 0.152015
vn 0.000000 0.000000 1.000000
vn 0.000000 0.000000 1.000000
vn 0.000000 0.000000 1.000000
vn 0.000000 0.000000 -1.000000
vn 0.000000 0.000000 -1.000000
vn 0.000000 0.000000 -1.000000
vn -0.998841 -0.048137 0.000000
vn -0.998841 -0.048138 0.000000
vn -0.998841 -0.048137 0.000000
vn -0.998841 -0.048137 0.000000
vn 0.998841 -0.048138 -0.000000
vn 0.998841 -0.048138 -0.000002
vn 0.998841 -0.048138 -0.000002
vn 0.998841 -0.048138 -0.000002
vn 0.000000 0.000000 -1.000000
vn 0.000000 0.000000 -1.000000
vn 0.000000 0.000000 -1.000000
vn 0.000000 0.000000 1.000000
vn 0.000000 0.000000 1.000000
vn 0.000000 0.000000 1.000000
vn 0.000000 0.000000 -1.000000
vn 0.036020 0.075194 0.996518
vn 0.038003 0.079334 0.996123
vn 0.000000 0.000001 1.000000
vn 0.000000 0.000000 -1.000000
vn 0.038004 0.079334 -0.996123
vn 0.036021 0.075194 -0.996518
vn -0.038003 0.079334 0.996123
vn -0.041022 0.085636 0.995482
vn -0.041022 0.085636 0.995482
vn -0.034705 0.072449 0.996768
vn 0.292952 0.054064 0.954597
vn 0.167407 0.140107 0.975882
vn 0.075205 0.189272 0.979040
vn 0.081745 0.038769 0.995899
vn 0.041022 0.085636 0.995482
vn 0.041022 0.085636 0.995482
vn 0.999954 0.009629 -0.000000
vn 0.999954 0.009629 -0.000000
vn 0.991378 0.009547 -0.130681
vn 0.991378 0.009547 -0.130681
vn 0.041023 0.085636 -0.995482
vn 0.041023 0.085636 -0.995482
vn 0.068779 0.171177 -0.982837
vn 0.036899 0.160157 -0.986402
vn 0.285579 0.071575 -0.955679
vn 0.072497 0.068474 -0.995015
vn -0.041023 0.085636 -0.995482
vn -0.041023 0.085636 -0.995482
vn -0.038004 0.079334 -0.996123
vn -0.034706 0.072449 -0.996768
vn -0.991379 0.009547 -0.130681
vn -0.999954 0.009629 -0.000000
vn -0.999954 0.009629 0.000000
vn -0.991379 0.009547 -0.130681
vn 0.221396 0.245312 0.943825
vn -0.221396 0.245312 0.943825
vn -0.364938 -0.098811 0.925774
vn -0.290938 0.056242 0.955087
vn 0.059537 -0.368004 0.927916
vn 0.361226 -0.098478 0.927264
vn 0.022575 0.121563 -0.992327
vn 0.063426 0.121711 -0.990537
vn 0.361226 -0.098478 -0.927264
vn 0.059537 -0.368004 -0.927916
vn -0.285579 0.071575 -0.955679
vn -0.063426 0.121711 -0.990537
vn -0.036899 0.160157 -0.986402
vn 0.991379 0.009547 0.130681
vn 0.991378 0.009547 0.130681
vn 0.998841 -0.048138 0.000006
vn -0.998841 -0.048138 0.000000
vn -0.991379 0.009547 0.130681
vn -0.991379 0.009547 0.130681
vn 0.000000 -0.972519 -0.232822
vn 0.000000 -0.972519 -0.232822
vn 0.000000 -1.000000 0.000000
vn 0.000000 -1.000000 0.000000
vn 0.000000 -0.972519 0.232822
vn 0.000000 -0.972519 0.232822
vn 0.000000 0.000000 -1.000000
vn 0.000000 0.000000 -1.000000
vn 0.000000 0.060184 -0.998187
vn 0.000000 -0.439420 -0.898282
vn -0.059537 -0.368004 -0.927916
vn -0.072497 0.068474 -0.995015
vn -0.068779 0.171177 -0.982837
vn -0.000000 0.180014 -0.983664
vn -0.022575 0.121563 -0.992327
vn -0.000000 0.165166 -0.986266
vn 0.000000 0.000000 -1.000000
vn 0.000000 0.000000 -1.000000
vn 0.000000 1.000000 0.000000
vn 0.000000 1.000000 0.000000
vn 0.000000 1.000000 0.000000
vn 0.000000 1.000000 0.000000
vn 0.000000 0.000000 1.000000
vn -0.001376 0.200641 0.979664
vn -0.000000 0.425770 0.904832
vn -0.075377 0.188708 0.979136
vn -0.000985 0.031897 0.999491
vn -0.081334 0.034186 0.996101
vn -0.059852 -0.372558 0.926077
vn 0.004513 -0.443459 0.896283
vn 0.000000 0.000001 1.000000
vn 0.000000 0.000001 1.000000
vn -0.361226 -0.098478 -0.927264
vn -0.165366 0.139812 0.976272
s 1
g Herbs
usemtl lambert2SG
f 3/3/1 15/4/2 16/7/3
s 2
f 17/1/4 18/2/5 1/5/6
s 3
f 2/51/7 31/79/8 13/53/9 4/54/10
s 4
f 30/59/11 1/60/12 3/61/13 16/84/14
s 2
f 2/6/15 19/11/16 20/12/17
s 1
f 14/8/18 4/9/19 13/10/20
s 2
f 1/5/6 18/2/5 51/13/21
s 7
f 5/15/22 10/16/23 54/17/24
s 8
f 48/14/25 11/19/26 7/20/27
s 7
f 9/18/28 14/8/29 13/10/30 6/27/31
s 10
f 22/28/32 21/29/33 52/30/34 53/35/35
s 7
f 16/7/36 15/4/37 10/16/23 5/15/22
s 11
f 29/64/38 30/81/39 16/62/40 5/65/41
s 8
f 7/20/27 11/19/26 18/2/42 17/1/43
s 12
f 50/21/44 25/22/45 27/23/46 49/24/47
s 8
f 20/12/48 19/11/49 12/25/50 8/26/51
s 14
f 13/80/52 31/52/53 32/56/54 6/57/55
s 10
f 22/28/32 15/4/56 21/29/33
f 15/4/56 52/30/34 21/29/33
f 14/8/57 9/18/58 24/36/59
f 54/17/60 10/16/61 22/28/32 53/35/35
s 12
f 51/13/62 18/2/63 25/22/45 50/21/44
f 18/2/63 11/19/64 27/23/46
f 11/19/64 48/14/65 49/24/47 27/23/46
f 28/31/66 19/11/67 26/32/68
s 11
f 7/66/69 17/82/70 30/81/39 29/64/38
s 4
f 17/63/71 1/60/12 30/59/11
s 3
f 2/51/7 20/83/72 31/79/8
s 14
f 32/56/54 31/52/53 20/55/73 8/58/74
s 17
f 5/67/75 6/68/76 32/77/77 29/70/78
f 7/71/79 29/78/78 32/69/77 8/72/80
s 8
f 41/33/81 33/34/82 7/20/27 8/26/51
s 12
f 34/38/83 33/34/84 41/33/85 42/39/86
f 43/40/87 35/41/88 34/38/83 42/39/86
f 44/49/89 36/50/90 35/41/88 43/40/87
s 2
f 1/5/6 36/50/91 44/49/92 2/6/15
s off
f 3/73/93 1/74/94 2/75/95 4/76/96
s 1
f 37/37/97 3/3/1 4/9/19 14/8/18
s 10
f 38/42/98 37/37/99 14/8/57 45/43/100
f 39/44/101 38/42/98 45/43/100 46/45/102
f 47/46/103 40/47/104 39/44/101 46/45/102
s 7
f 5/15/22 40/47/105 47/46/106 6/27/31
s 8
f 12/25/50 41/33/81 8/26/51
s 12
f 42/39/86 41/33/85 12/25/107 28/31/66
f 26/32/68 43/40/87 42/39/86 28/31/66
f 19/11/67 44/49/89 43/40/87 26/32/68
s 2
f 2/6/15 44/49/92 19/11/16
s 10
f 45/43/100 14/8/57 23/48/108
f 46/45/102 45/43/100 23/48/108 24/36/59
f 9/18/58 47/46/103 46/45/102 24/36/59
s 7
f 6/27/31 47/46/106 9/18/28
s 8
f 33/34/82 48/14/25 7/20/27
s 12
f 49/24/47 48/14/65 33/34/84 34/38/83
f 35/41/88 50/21/44 49/24/47 34/38/83
f 36/50/90 51/13/62 50/21/44 35/41/88
s 2
f 1/5/6 51/13/21 36/50/91
s 1
f 15/4/2 3/3/1 37/37/97
s 10
f 52/30/34 15/4/56 37/37/99 38/42/98
f 53/35/35 52/30/34 38/42/98 39/44/101
f 40/47/104 54/17/60 53/35/35 39/44/101
s 7
f 5/15/22 54/17/24 40/47/105
s 12
f 12/25/107 19/11/67 28/31/66
f 18/2/63 27/23/46 25/22/45
s 10
f 14/8/57 24/36/59 23/48/108
f 10/16/61 15/4/56 22/28/32
