# Blender 3.3.1
# www.blender.org
mtllib ANTONIO.mtl
o ANTONIO
v 0.330689 1.507444 0.572493
v 0.000001 0.599097 0.663702
v 0.604199 1.507444 0.485280
v -0.269765 0.599097 0.606362
v 0.773237 1.507444 0.248174
v -0.492885 0.599097 0.444255
v 0.808575 1.507444 -0.084445
v -0.630781 0.599097 0.205412
v 0.704104 1.507444 -0.402527
v -0.659609 0.599097 -0.068869
v 0.477886 1.507444 -0.514772
v -0.574385 0.599097 -0.331162
v 0.169038 1.507444 -0.519666
v -0.389844 0.599097 -0.536116
v -0.169038 1.507444 -0.519666
v -0.137896 0.599097 -0.648291
v -0.477886 1.507444 -0.514772
v 0.137896 0.599097 -0.648291
v -0.704103 1.507444 -0.402526
v 0.389845 0.599097 -0.536116
v -0.808575 1.507444 -0.084444
v 0.574385 0.599097 -0.331163
v -0.773236 1.507444 0.248175
v 0.659610 0.599097 -0.068869
v -0.604198 1.507444 0.485280
v 0.630782 0.599097 0.205412
v 0.000001 1.507444 0.591844
v 0.492886 0.599097 0.444255
v -0.330688 1.507444 0.572494
v 0.269766 0.599097 0.606361
v 0.000001 0.000364 0.598720
v 0.000001 0.197920 0.663702
v 0.000001 0.031932 0.644669
v -0.243334 0.000364 0.546997
v -0.269765 0.197920 0.606362
v -0.262023 0.031932 0.588974
v -0.444594 0.000364 0.400774
v -0.492885 0.197920 0.444255
v -0.478741 0.031932 0.431520
v -0.568979 0.000364 0.185332
v -0.630781 0.197920 0.205412
v -0.612680 0.031932 0.199531
v -0.594983 0.000364 -0.062076
v -0.659609 0.197920 -0.068869
v -0.640681 0.031932 -0.066879
v -0.518109 0.000364 -0.298671
v -0.574385 0.197920 -0.331162
v -0.557902 0.031932 -0.321646
v -0.351649 0.000364 -0.483544
v -0.389844 0.197920 -0.536116
v -0.378657 0.031932 -0.520718
v -0.124385 0.000364 -0.584728
v -0.137896 0.197920 -0.648291
v -0.133939 0.031932 -0.629674
v 0.124385 0.000364 -0.584728
v 0.137896 0.197920 -0.648291
v 0.133939 0.031932 -0.629674
v 0.351649 0.000364 -0.483544
v 0.389845 0.197920 -0.536116
v 0.378657 0.031932 -0.520718
v 0.518109 0.000364 -0.298672
v 0.574385 0.197920 -0.331163
v 0.557903 0.031932 -0.321646
v 0.594984 0.000364 -0.062077
v 0.659610 0.197920 -0.068869
v 0.640681 0.031932 -0.066880
v 0.568980 0.000364 0.185331
v 0.630782 0.197920 0.205412
v 0.612681 0.031932 0.199531
v 0.444595 0.000364 0.400773
v 0.492886 0.197920 0.444255
v 0.478742 0.031932 0.431519
v 0.243335 0.000364 0.546997
v 0.269766 0.197920 0.606361
v 0.262024 0.031932 0.588974
v 0.000000 2.779757 0.298474
v 0.416437 2.779757 0.344228
v 0.760868 2.779757 0.344282
v 0.973738 2.779757 0.158796
v 1.018240 2.779757 -0.054212
v 0.886679 2.779757 -0.257910
v 0.601803 2.779757 -0.375610
v 0.212870 2.779757 -0.315118
v -0.212870 2.779757 -0.315118
v -0.601803 2.779757 -0.375610
v -0.886679 2.779757 -0.257909
v -1.018240 2.779757 -0.054211
v -0.973738 2.779757 0.158796
v -0.760868 2.779757 0.309149
v -0.416436 2.779757 0.392028
v 0.000000 4.644852 0.065415
v 0.499212 4.644852 0.059727
v 0.912106 4.644852 0.043648
v 1.167289 4.644852 0.019958
v 1.220636 4.644852 -0.007248
v 1.062925 4.644852 -0.033265
v 0.721424 4.644852 -0.053594
v 0.255182 4.644852 -0.064720
v -0.255182 4.644852 -0.064720
v -0.721424 4.644852 -0.053593
v -1.062924 4.644852 -0.033264
v -1.220636 4.644852 -0.007247
v -1.167288 4.644852 0.019958
v -0.912106 4.644852 0.043649
v -0.499212 4.644852 0.059728
v 0.000000 4.909272 0.006903
v 0.499212 4.909272 0.006274
v 0.912106 4.909272 0.004496
v 1.167289 4.909272 0.001876
v 1.220636 4.909272 -0.001132
v 1.062925 4.909272 -0.004009
v 0.721424 4.909272 -0.006256
v 0.255183 4.909272 -0.007487
v -0.255182 4.909272 -0.007486
v -0.721424 4.909272 -0.006256
v -1.062924 4.909272 -0.004008
v -1.220636 4.909272 -0.001131
v -1.167288 4.909272 0.001877
v -0.912106 4.909272 0.004497
v -0.499212 4.909272 0.006274
v -1.238193 4.969012 0.007432
v -1.238193 4.904990 0.007432
v -1.238193 4.969012 -0.008173
v -1.238193 4.904990 -0.008173
v 1.238194 4.969012 0.007431
v 1.238194 4.904990 0.007431
v 1.238194 4.969012 -0.008174
v 1.238194 4.904990 -0.008174
vn 0.4061 -0.0566 0.9121
vn 0.3460 0.0031 0.9382
vn -0.0000 0.0270 0.9996
vn -0.0000 -0.0566 0.9984
vn -0.7420 -0.0566 0.6681
vn -0.7026 -0.0479 0.7100
vn -0.9441 -0.0779 0.3203
vn -0.9495 -0.0566 0.3085
vn -0.9911 -0.0823 -0.1045
vn -0.9929 -0.0566 -0.1044
vn -0.8402 -0.0664 -0.5383
vn -0.8646 -0.0566 -0.4992
vn -0.4998 -0.0047 -0.8661
vn -0.5868 -0.0566 -0.8077
vn -0.1537 0.0530 -0.9867
vn -0.2076 -0.0566 -0.9766
vn 0.1537 0.0530 -0.9867
vn 0.2076 -0.0566 -0.9766
vn 0.4998 -0.0047 -0.8661
vn 0.5868 -0.0566 -0.8077
vn 0.8402 -0.0664 -0.5383
vn 0.8646 -0.0566 -0.4992
vn 0.9911 -0.0823 -0.1045
vn 0.9929 -0.0566 -0.1044
vn 0.9441 -0.0779 0.3203
vn 0.9495 -0.0566 0.3085
vn 0.7026 -0.0479 0.7100
vn 0.7420 -0.0566 0.6681
vn -0.9088 -0.1224 0.3989
vn -0.9807 -0.1500 -0.1251
vn -0.2962 0.0414 -0.9542
vn -0.7497 -0.0778 -0.6572
vn -0.5818 0.0142 -0.8132
vn -0.1306 0.1185 -0.9843
vn -0.4061 -0.0566 0.9121
vn -0.3460 0.0031 0.9382
vn -0.3540 -0.4926 0.7950
vn -0.0000 -0.4926 0.8703
vn -0.1349 -0.9434 0.3030
vn -0.0000 -0.9434 0.3316
vn -0.6467 -0.4926 0.5823
vn -0.2464 -0.9434 0.2219
vn -0.8277 -0.4926 0.2689
vn -0.3154 -0.9434 0.1025
vn -0.8655 -0.4926 -0.0910
vn -0.3298 -0.9434 -0.0347
vn -0.7537 -0.4926 -0.4351
vn -0.2872 -0.9434 -0.1658
vn -0.5115 -0.4926 -0.7041
vn -0.1949 -0.9434 -0.2683
vn -0.1809 -0.4926 -0.8513
vn -0.0689 -0.9434 -0.3244
vn 0.1809 -0.4926 -0.8513
vn 0.0689 -0.9434 -0.3244
vn 0.5115 -0.4926 -0.7041
vn 0.1949 -0.9434 -0.2683
vn 0.7537 -0.4926 -0.4351
vn 0.2872 -0.9434 -0.1658
vn 0.8655 -0.4926 -0.0910
vn 0.3298 -0.9434 -0.0347
vn 0.8277 -0.4926 0.2689
vn 0.3154 -0.9434 0.1025
vn 0.6467 -0.4926 0.5823
vn 0.2464 -0.9434 0.2219
vn 0.3540 -0.4926 0.7950
vn 0.1349 -0.9434 0.3030
vn 0.0331 0.1267 -0.9914
vn 0.2962 0.0414 -0.9542
vn 0.5632 -0.0228 0.8260
vn 0.1753 0.0858 0.9808
vn -0.1893 0.0770 0.9789
vn -0.5819 -0.0241 0.8129
vn -0.0331 0.1267 -0.9914
vn 0.9807 -0.1500 -0.1251
vn 0.9129 -0.1266 0.3880
vn 0.7497 -0.0778 -0.6572
vn 0.0157 0.1241 0.9922
vn 0.3548 0.0786 0.9316
vn 0.8202 -0.0575 0.5692
vn 0.4683 0.0272 0.8831
vn 0.1329 0.1266 0.9830
vn 0.5818 0.0142 -0.8132
vn 0.9750 -0.1013 -0.1976
vn 0.0283 0.1692 0.9852
vn -0.0538 0.1498 0.9873
vn 0.1306 0.1185 -0.9843
vn 0.0218 0.1556 0.9876
vn -0.9750 -0.1013 -0.1976
vn -0.8049 -0.0542 0.5909
vn -0.0340 0.1460 -0.9887
vn 0.0340 0.1460 -0.9887
vn -0.3849 0.0756 0.9198
vn -0.0539 0.1546 -0.9865
vn -0.2559 0.0828 -0.9631
vn -0.0620 0.1049 -0.9925
vn -0.0229 0.1687 -0.9854
vn -0.9750 -0.0007 -0.2221
vn 0.9750 -0.0007 -0.2221
vn -0.4538 0.0271 0.8907
vn 0.2559 0.0828 -0.9631
vn -0.1417 0.1247 0.9820
vn 0.0539 0.1546 -0.9865
vn -0.0170 0.1705 0.9852
vn -0.0112 0.1733 -0.9848
vn 0.0128 0.1762 0.9843
vn 0.0112 0.1733 -0.9848
vn 0.0017 0.1681 0.9858
vn 0.1631 0.0650 0.9845
vn 0.0363 0.1400 0.9895
vn -0.9686 0.2350 -0.0816
vn 0.9686 0.2350 -0.0816
vn -0.1631 0.0650 0.9845
vn 0.0620 0.1049 -0.9925
vn -0.0363 0.1400 0.9895
vn 0.0229 0.1687 -0.9854
vn -0.0137 0.1898 0.9817
vn 0.0065 0.2028 -0.9792
vn -0.0000 0.2071 0.9783
vn -0.0065 0.2028 -0.9792
vn 0.0137 0.1898 0.9817
vn 0.5774 -0.5774 0.5774
vn -0.5774 -0.5774 0.5774
vn -0.5774 -0.5774 -0.5774
vn 0.5774 -0.5774 -0.5774
vn 0.5774 0.5774 0.5774
vn -0.5774 0.5774 0.5774
vn 0.5774 0.5774 -0.5774
vn -0.5774 0.5774 -0.5774
vt 0.361877 0.455438
vt 0.467015 0.311419
vt 0.257147 0.315411
vt 0.448499 0.455438
vt 0.400566 0.311419
vt 0.152501 0.315411
vt 0.502034 0.455438
vt 0.334116 0.311419
vt 0.065949 0.315411
vt 0.517168 0.455297
vt 0.513226 0.455438
vt 0.267667 0.311419
vt 0.012457 0.315411
vt 0.548434 0.455297
vt 0.201217 0.311419
vt 0.001274 0.315411
vt 0.998592 0.315181
vt 0.616137 0.455297
vt 0.134768 0.311419
vt 0.967215 0.315181
vt 0.708569 0.455297
vt 0.068318 0.311419
vt 0.899274 0.315181
vt 0.809748 0.455297
vt 0.001869 0.311419
vt 0.998610 0.311419
vt 0.806515 0.315181
vt 0.902180 0.455297
vt 0.932161 0.311419
vt 0.704977 0.315181
vt 0.969882 0.455297
vt 0.865711 0.311419
vt 0.612218 0.315181
vt 0.998381 0.455297
vt 0.001068 0.455438
vt 0.799262 0.311419
vt 0.544277 0.315181
vt 0.012260 0.455438
vt 0.732813 0.311419
vt 0.513020 0.315411
vt 0.516000 0.315181
vt 0.065795 0.455438
vt 0.666363 0.311419
vt 0.501837 0.315411
vt 0.257147 0.455438
vt 0.599914 0.311419
vt 0.448345 0.315411
vt 0.152417 0.455438
vt 0.533464 0.311419
vt 0.361794 0.315411
vt 0.467015 0.246369
vt 0.201171 0.242202
vt 0.467015 0.268830
vt 0.467015 0.252948
vt 0.400566 0.246369
vt 0.250465 0.231724
vt 0.400566 0.268830
vt 0.400566 0.252948
vt 0.334116 0.246369
vt 0.291236 0.202102
vt 0.334116 0.268830
vt 0.334116 0.252948
vt 0.267667 0.246369
vt 0.316433 0.158459
vt 0.267667 0.268830
vt 0.267667 0.252948
vt 0.201217 0.246369
vt 0.321701 0.108340
vt 0.201217 0.268830
vt 0.201217 0.252948
vt 0.134768 0.246369
vt 0.306128 0.060411
vt 0.134768 0.268830
vt 0.134768 0.252948
vt 0.068318 0.246369
vt 0.272407 0.022961
vt 0.068318 0.268830
vt 0.068318 0.252948
vt 0.001869 0.246369
vt 0.998610 0.246369
vt 0.226369 0.002463
vt 0.001869 0.268830
vt 0.998610 0.268830
vt 0.001869 0.252948
vt 0.998610 0.252948
vt 0.932161 0.246369
vt 0.175974 0.002463
vt 0.932161 0.268830
vt 0.932161 0.252948
vt 0.865711 0.246369
vt 0.129936 0.022961
vt 0.865711 0.268830
vt 0.865711 0.252948
vt 0.799262 0.246369
vt 0.096215 0.060411
vt 0.799262 0.268830
vt 0.799262 0.252948
vt 0.732813 0.246369
vt 0.080642 0.108340
vt 0.732813 0.268830
vt 0.732813 0.252948
vt 0.666363 0.246369
vt 0.085910 0.158459
vt 0.666363 0.268830
vt 0.666363 0.252948
vt 0.599914 0.246369
vt 0.111107 0.202102
vt 0.599914 0.268830
vt 0.599914 0.252948
vt 0.533464 0.246369
vt 0.151878 0.231724
vt 0.533464 0.268830
vt 0.533464 0.252948
vt 0.257147 0.651572
vt 0.361671 0.651572
vt 0.448121 0.651572
vt 0.501550 0.651572
vt 0.512720 0.651572
vt 0.517107 0.651418
vt 0.548066 0.651418
vt 0.615103 0.651418
vt 0.706626 0.651418
vt 0.806811 0.651418
vt 0.898335 0.651418
vt 0.965371 0.651418
vt 0.996330 0.651418
vt 0.001574 0.651572
vt 0.012744 0.651572
vt 0.066173 0.651572
vt 0.152623 0.651572
vt 0.257147 0.939086
vt 0.361996 0.939086
vt 0.448716 0.939086
vt 0.502312 0.939086
vt 0.513516 0.939086
vt 0.515498 0.939255
vt 0.546790 0.939255
vt 0.614548 0.939255
vt 0.707057 0.939255
vt 0.808320 0.939255
vt 0.900829 0.939255
vt 0.968587 0.939255
vt 0.999879 0.939255
vt 0.001163 0.939086
vt 0.011983 0.939086
vt 0.065578 0.939086
vt 0.152298 0.939086
vt 0.257147 0.979848
vt 0.361996 0.979848
vt 0.448716 0.979848
vt 0.502312 0.979848
vt 0.513516 0.979848
vt 0.515498 0.980043
vt 0.546790 0.980043
vt 0.614548 0.980043
vt 0.707057 0.980043
vt 0.808320 0.980043
vt 0.900829 0.980043
vt 0.968587 0.980043
vt 0.999879 0.980043
vt 0.001201 0.979848
vt 0.011983 0.979848
vt 0.065578 0.979848
vt 0.152298 0.979848
vt 0.001070 0.998840
vt 0.001070 0.981516
vt 0.001070 0.998840
vt 0.001070 0.981516
vt 0.998930 0.998840
vt 0.998930 0.981516
vt 0.998930 0.998840
vt 0.998930 0.981516
s 1
usemtl ANTONIO
f 74/112/1 30/49/2 2/2/3 32/53/4
f 38/61/5 6/8/6 8/12/7 41/65/8
f 41/65/8 8/12/7 10/15/9 44/69/10
f 44/69/10 10/15/9 12/19/11 47/73/12
f 47/73/12 12/19/11 14/22/13 50/77/14
f 50/77/14 14/22/13 16/25/15 53/82/16
f 53/83/16 16/26/15 18/29/17 56/88/18
f 56/88/18 18/29/17 20/32/19 59/92/20
f 59/92/20 20/32/19 22/36/21 62/96/22
f 62/96/22 22/36/21 24/39/23 65/100/24
f 65/100/24 24/39/23 26/43/25 68/104/26
f 68/104/26 26/43/25 28/46/27 71/108/28
f 71/108/28 28/46/27 30/49/2 74/112/1
f 10/16/9 8/13/7 23/38/29 21/35/30
f 17/28/31 19/31/32 86/125/33 85/124/34
f 35/57/35 4/5/36 6/8/6 38/61/5
f 32/53/4 2/2/3 4/5/36 35/57/35
f 32/53/4 35/57/35 36/58/37 33/54/38
f 33/54/38 36/58/37 34/55/39 31/51/40
f 35/57/35 38/61/5 39/62/41 36/58/37
f 36/58/37 39/62/41 37/59/42 34/55/39
f 38/61/5 41/65/8 42/66/43 39/62/41
f 39/62/41 42/66/43 40/63/44 37/59/42
f 41/65/8 44/69/10 45/70/45 42/66/43
f 42/66/43 45/70/45 43/67/46 40/63/44
f 44/69/10 47/73/12 48/74/47 45/70/45
f 45/70/45 48/74/47 46/71/48 43/67/46
f 47/73/12 50/77/14 51/78/49 48/74/47
f 48/74/47 51/78/49 49/75/50 46/71/48
f 50/77/14 53/82/16 54/84/51 51/78/49
f 51/78/49 54/84/51 52/79/52 49/75/50
f 53/83/16 56/88/18 57/89/53 54/85/51
f 54/85/51 57/89/53 55/86/54 52/80/52
f 56/88/18 59/92/20 60/93/55 57/89/53
f 57/89/53 60/93/55 58/90/56 55/86/54
f 59/92/20 62/96/22 63/97/57 60/93/55
f 60/93/55 63/97/57 61/94/58 58/90/56
f 62/96/22 65/100/24 66/101/59 63/97/57
f 63/97/57 66/101/59 64/98/60 61/94/58
f 65/100/24 68/104/26 69/105/61 66/101/59
f 66/101/59 69/105/61 67/102/62 64/98/60
f 68/104/26 71/108/28 72/109/63 69/105/61
f 69/105/61 72/109/63 70/106/64 67/102/62
f 71/108/28 74/112/1 75/113/65 72/109/63
f 72/109/63 75/113/65 73/110/66 70/106/64
f 74/112/1 32/53/4 33/54/38 75/113/65
f 75/113/65 33/54/38 31/51/40 73/110/66
f 31/52/40 34/56/39 37/60/42 40/64/44 43/68/46 46/72/48 49/76/50 52/81/52 55/87/54 58/91/56 61/95/58 64/99/60 67/103/62 70/107/64 73/111/66
f 20/33/19 18/30/17 13/21/67 11/18/68
f 30/50/2 28/47/27 3/4/69 1/1/70
f 6/9/6 4/6/36 29/48/71 25/42/72
f 16/27/15 14/23/13 17/28/31 15/24/73
f 26/44/25 24/40/23 7/11/74 5/7/75
f 12/20/11 10/17/9 21/34/30 19/31/32
f 22/37/21 20/33/19 11/18/68 9/14/76
f 2/3/3 30/50/2 1/1/70 27/45/77
f 8/13/7 6/9/6 25/42/72 23/38/29
f 18/30/17 16/27/15 15/24/73 13/21/67
f 4/6/36 2/3/3 27/45/77 29/48/71
f 28/47/27 26/44/25 5/7/75 3/4/69
f 14/23/13 12/20/11 19/31/32 17/28/31
f 24/41/23 22/37/21 9/14/76 7/10/74
f 78/116/78 79/117/79 94/134/80 93/133/81
f 7/10/74 9/14/76 81/120/82 80/119/83
f 29/48/71 27/45/77 76/114/84 90/130/85
f 9/14/76 11/18/68 82/121/86 81/120/82
f 27/45/77 1/1/70 77/115/87 76/114/84
f 19/31/32 21/34/30 87/126/88 86/125/33
f 1/1/70 3/4/69 78/116/78 77/115/87
f 21/35/30 23/38/29 88/128/89 87/127/88
f 11/18/68 13/21/67 83/122/90 82/121/86
f 13/21/67 15/24/73 84/123/91 83/122/90
f 3/4/69 5/7/75 79/117/79 78/116/78
f 23/38/29 25/42/72 89/129/92 88/128/89
f 5/7/75 7/11/74 80/118/83 79/117/79
f 25/42/72 29/48/71 90/130/85 89/129/92
f 15/24/73 17/28/31 85/124/34 84/123/91
f 100/141/93 101/142/94 116/159/95 115/158/96
f 86/125/33 87/126/88 102/143/97 101/142/94
f 79/117/79 80/118/83 95/135/98 94/134/80
f 87/127/88 88/128/89 103/145/99 102/144/97
f 80/119/83 81/120/82 96/137/100 95/136/98
f 88/128/89 89/129/92 104/146/101 103/145/99
f 81/120/82 82/121/86 97/138/102 96/137/100
f 89/129/92 90/130/85 105/147/103 104/146/101
f 82/121/86 83/122/90 98/139/104 97/138/102
f 90/130/85 76/114/84 91/131/105 105/147/103
f 83/122/90 84/123/91 99/140/106 98/139/104
f 76/114/84 77/115/87 92/132/107 91/131/105
f 84/123/91 85/124/34 100/141/93 99/140/106
f 77/115/87 78/116/78 93/133/81 92/132/107
f 85/124/34 86/125/33 101/142/94 100/141/93
f 93/133/81 94/134/80 109/151/108 108/150/109
f 101/142/94 102/143/97 117/160/110 116/159/95
f 94/134/80 95/135/98 110/152/111 109/151/108
f 102/144/97 103/145/99 118/162/112 117/161/110
f 95/136/98 96/137/100 111/154/113 110/153/111
f 103/145/99 104/146/101 119/163/114 118/162/112
f 96/137/100 97/138/102 112/155/115 111/154/113
f 104/146/101 105/147/103 120/164/116 119/163/114
f 97/138/102 98/139/104 113/156/117 112/155/115
f 105/147/103 91/131/105 106/148/118 120/164/116
f 98/139/104 99/140/106 114/157/119 113/156/117
f 91/131/105 92/132/107 107/149/120 106/148/118
f 99/140/106 100/141/93 115/158/96 114/157/119
f 92/132/107 93/133/81 108/150/109 107/149/120
f 126/170/121 122/166/122 124/168/123 128/172/124
f 126/170/121 125/169/125 121/165/126 122/166/122
f 128/172/124 127/171/127 125/169/125 126/170/121
f 124/168/123 123/167/128 127/171/127 128/172/124
f 121/165/126 125/169/125 127/171/127 123/167/128
f 122/166/122 121/165/126 123/167/128 124/168/123
