# Blender 3.3.1
# www.blender.org
mtllib Lorenna_Eyes_liquid.mtl
o Lorenna_Eyes.001
v 1.199428 0.326313 -0.785890
v 1.199428 0.791003 -1.068762
v 1.631148 0.791003 -0.785890
v 1.199428 0.462417 -0.985911
v 1.448682 0.522714 -0.949206
v 1.504701 0.791003 -0.985911
v 1.504701 0.462417 -0.785890
v 1.199428 3.373053 -1.068762
v 1.199428 3.837743 -0.785890
v 1.631148 3.373053 -0.785890
v 1.199428 3.701639 -0.985911
v 1.448682 3.641342 -0.949206
v 1.504701 3.701639 -0.785890
v 1.504701 3.373053 -0.985911
v 1.199428 0.326313 0.785890
v 1.631149 0.791003 0.785889
v 1.199429 0.791003 1.068762
v 1.504701 0.462417 0.785890
v 1.448682 0.522714 0.949206
v 1.504701 0.791003 0.985910
v 1.199428 0.462417 0.985910
v 1.199428 3.837743 0.785890
v 1.199429 3.373053 1.068762
v 1.631149 3.373053 0.785889
v 1.199429 3.701639 0.985910
v 1.448683 3.641342 0.949206
v 1.504701 3.373053 0.985910
v 1.504701 3.701639 0.785889
v -1.199429 0.326313 -0.785889
v -1.631149 0.791003 -0.785889
v -1.199429 0.791003 -1.068762
v -1.504701 0.462417 -0.785890
v -1.448683 0.522714 -0.949206
v -1.504701 0.791003 -0.985910
v -1.199429 0.462417 -0.985910
v -1.199429 3.837743 -0.785889
v -1.199429 3.373053 -1.068762
v -1.631149 3.373053 -0.785889
v -1.199429 3.701639 -0.985910
v -1.448683 3.641342 -0.949205
v -1.504701 3.373053 -0.985910
v -1.504701 3.701639 -0.785889
v -1.199428 0.326313 0.785890
v -1.199428 0.791003 1.068762
v -1.631149 0.791003 0.785891
v -1.199428 0.462417 0.985911
v -1.448682 0.522714 0.949207
v -1.504701 0.791003 0.985911
v -1.504701 0.462417 0.785890
v -1.199428 3.837743 0.785890
v -1.631149 3.373053 0.785891
v -1.199428 3.373053 1.068762
v -1.504701 3.701639 0.785891
v -1.448682 3.641342 0.949207
v -1.504701 3.373053 0.985911
v -1.199428 3.701639 0.985911
vn -0.1232 -0.1147 -0.9857
vn -0.1232 0.1147 -0.9857
vn 0.1232 0.1147 -0.9857
vn 0.1232 -0.1147 -0.9857
vn -0.9525 -0.1651 0.2561
vn -0.9525 0.1651 0.2561
vn -0.9525 0.1651 -0.2561
vn -0.9525 -0.1651 -0.2561
vn -0.1871 0.9447 0.2694
vn 0.1871 0.9447 0.2694
vn 0.1871 0.9447 -0.2694
vn -0.1871 0.9447 -0.2694
vn 0.9525 -0.1651 -0.2561
vn 0.9525 0.1651 -0.2561
vn 0.9525 0.1651 0.2561
vn 0.9525 -0.1651 0.2561
vn 0.1232 -0.1147 0.9857
vn 0.1232 0.1147 0.9857
vn -0.1232 0.1147 0.9857
vn -0.1232 -0.1147 0.9857
vn 0.1871 -0.9447 -0.2694
vn 0.1464 -0.5813 -0.8004
vn 0.5136 -0.4819 -0.7100
vn 0.6995 -0.6687 -0.2521
vn 0.6005 -0.1326 -0.7885
vn 0.1464 0.5813 -0.8004
vn 0.5136 0.4819 -0.7100
vn 0.6005 0.1326 -0.7885
vn 0.6995 0.6687 -0.2521
vn 0.1871 -0.9447 0.2694
vn 0.6995 -0.6687 0.2521
vn 0.5136 -0.4819 0.7100
vn 0.1464 -0.5813 0.8004
vn 0.6005 -0.1326 0.7885
vn 0.1464 0.5813 0.8004
vn 0.5136 0.4819 0.7100
vn 0.6995 0.6687 0.2521
vn 0.6005 0.1326 0.7885
vn -0.1871 -0.9447 -0.2694
vn -0.6995 -0.6687 -0.2521
vn -0.5136 -0.4819 -0.7100
vn -0.1464 -0.5813 -0.8004
vn -0.6005 -0.1326 -0.7885
vn -0.1464 0.5813 -0.8004
vn -0.5136 0.4819 -0.7100
vn -0.6995 0.6687 -0.2521
vn -0.6005 0.1326 -0.7885
vn -0.1871 -0.9447 0.2694
vn -0.1464 -0.5813 0.8004
vn -0.5136 -0.4819 0.7100
vn -0.6995 -0.6687 0.2521
vn -0.6005 -0.1326 0.7885
vn -0.6995 0.6687 0.2521
vn -0.5136 0.4819 0.7100
vn -0.1464 0.5813 0.8004
vn -0.6005 0.1326 0.7885
vt 0.730188 0.845626
vt 0.824094 0.939532
vt 0.824094 0.588763
vt 0.730188 0.858054
vt 0.811667 0.939532
vt 0.723013 0.858054
vt 0.816919 0.951960
vt 0.811667 0.581588
vt 0.824094 0.951960
vt 0.824094 0.576336
vt 0.717761 0.845627
vt 0.811667 0.588763
vt 0.893146 0.939532
vt 0.987051 0.845627
vt 0.893146 0.588763
vt 0.987051 0.858054
vt 0.905573 0.939532
vt 0.905573 0.946707
vt 0.999479 0.852801
vt 0.900320 0.576336
vt 0.999479 0.845627
vt 0.905573 0.588763
vt 0.893146 0.951960
vt 0.893146 0.576336
vt 0.730188 0.776575
vt 0.824094 0.657815
vt 0.824094 0.682669
vt 0.717761 0.776575
vt 0.811667 0.657815
vt 0.717761 0.769400
vt 0.816919 0.670242
vt 0.811667 0.675494
vt 0.824094 0.670242
vt 0.730188 0.764148
vt 0.811667 0.682669
vt 0.987051 0.776575
vt 0.893146 0.682669
vt 0.893146 0.657815
vt 0.987051 0.764148
vt 0.905573 0.682669
vt 0.994226 0.764148
vt 0.900320 0.670242
vt 0.905573 0.664989
vt 0.893146 0.670242
vt 0.999479 0.776575
vt 0.905573 0.657815
vt 0.799240 0.845627
vt 0.824094 0.845626
vt 0.824094 0.870481
vt 0.811667 0.845627
vt 0.813418 0.858054
vt 0.824094 0.858054
vt 0.799240 0.858054
vt 0.811667 0.870481
vt 0.918000 0.845626
vt 0.893146 0.870481
vt 0.893146 0.845627
vt 0.918000 0.858054
vt 0.905573 0.870481
vt 0.905573 0.856303
vt 0.893146 0.858054
vt 0.905573 0.845627
vt 0.799240 0.776575
vt 0.824094 0.751721
vt 0.824094 0.776575
vt 0.799240 0.764148
vt 0.811667 0.751721
vt 0.811667 0.765899
vt 0.824094 0.764148
vt 0.811667 0.776575
vt 0.918000 0.776575
vt 0.893146 0.776575
vt 0.893146 0.751721
vt 0.905573 0.776575
vt 0.903822 0.764148
vt 0.893146 0.764148
vt 0.918000 0.764148
vt 0.905573 0.751721
s 1
usemtl Lorenna_Eyes
f 31/49/1 37/56/2 8/13/3 2/2/4
f 45/65/5 51/72/6 38/57/7 30/48/8
f 50/71/9 22/36/10 9/14/11 36/55/12
f 3/3/13 10/15/14 24/38/15 16/26/16
f 17/27/17 23/37/18 52/73/19 44/64/20
f 1/1/21 4/4/22 5/6/23 7/11/24
f 2/2/4 6/9/25 5/7/23 4/5/22
f 3/3/13 7/12/24 5/8/23 6/10/25
f 8/13/3 11/17/26 12/18/27 14/23/28
f 9/14/11 13/21/29 12/19/27 11/16/26
f 10/15/14 14/24/28 12/20/27 13/22/29
f 15/25/30 18/28/31 19/30/32 21/34/33
f 16/26/16 20/33/34 19/31/32 18/29/31
f 17/27/17 21/35/33 19/32/32 20/33/34
f 22/36/10 25/39/35 26/41/36 28/45/37
f 23/37/18 27/44/38 26/42/36 25/40/35
f 24/38/15 28/46/37 26/43/36 27/44/38
f 29/47/39 32/50/40 33/51/41 35/53/42
f 30/48/8 34/52/43 33/51/41 32/50/40
f 31/49/1 35/54/42 33/51/41 34/52/43
f 36/55/12 39/58/44 40/60/45 42/62/46
f 37/56/2 41/61/47 40/60/45 39/59/44
f 38/57/7 42/62/46 40/60/45 41/61/47
f 43/63/48 46/66/49 47/68/50 49/70/51
f 44/64/20 48/69/52 47/68/50 46/67/49
f 45/65/5 49/70/51 47/68/50 48/69/52
f 50/71/9 53/74/53 54/75/54 56/77/55
f 51/72/6 55/76/56 54/75/54 53/74/53
f 52/73/19 56/78/55 54/75/54 55/76/56
f 15/25/30 1/1/21 7/11/24 18/28/31
f 18/29/31 7/12/24 3/3/13 16/26/16
f 2/2/4 8/13/3 14/23/28 6/9/25
f 6/10/25 14/24/28 10/15/14 3/3/13
f 9/14/11 22/36/10 28/45/37 13/21/29
f 13/22/29 28/46/37 24/38/15 10/15/14
f 23/37/18 17/27/17 20/33/34 27/44/38
f 27/44/38 20/33/34 16/26/16 24/38/15
f 43/63/48 15/25/30 21/34/33 46/66/49
f 46/67/49 21/35/33 17/27/17 44/64/20
f 22/36/10 50/71/9 56/77/55 25/39/35
f 25/40/35 56/78/55 52/73/19 23/37/18
f 51/72/6 45/65/5 48/69/52 55/76/56
f 55/76/56 48/69/52 44/64/20 52/73/19
f 29/47/39 43/63/48 49/70/51 32/50/40
f 32/50/40 49/70/51 45/65/5 30/48/8
f 50/71/9 36/55/12 42/62/46 53/74/53
f 53/74/53 42/62/46 38/57/7 51/72/6
f 37/56/2 31/49/1 34/52/43 41/61/47
f 41/61/47 34/52/43 30/48/8 38/57/7
f 1/1/21 29/47/39 35/53/42 4/4/22
f 4/5/22 35/54/42 31/49/1 2/2/4
f 36/55/12 9/14/11 11/16/26 39/58/44
f 39/59/44 11/17/26 8/13/3 37/56/2
f 15/25/30 43/63/48 29/47/39 1/1/21
