# Blender 3.3.1
# www.blender.org
mtllib Lorenna_Eyes_applier.mtl
o Lorenna_Eyes.001
v -0.362056 0.021348 0.498327
v 0.000000 0.021348 0.615966
v 0.000000 -2.089284 0.782959
v -0.460212 -2.089284 0.633428
v -0.744639 -2.089284 0.241948
v -0.744639 -2.089284 -0.241947
v -0.460212 -2.089284 -0.633427
v -0.000000 -2.089284 -0.782959
v 0.460212 -2.089284 -0.633428
v 0.744639 -2.089284 -0.241948
v 0.744639 -2.089284 0.241947
v 0.460212 -2.089284 0.633427
v -0.585819 0.021348 0.190344
v -0.585819 0.021348 -0.190344
v -0.362056 0.021348 -0.498327
v -0.000000 0.021348 -0.615966
v 0.362056 0.021348 -0.498327
v 0.585819 0.021348 -0.190344
v 0.585819 0.021348 0.190344
v 0.362056 0.021348 0.498327
v 0.000000 2.131979 0.636240
v 0.000000 1.977373 0.770727
v 0.000000 2.086695 0.736404
v -0.373973 2.131979 0.514729
v -0.453022 1.977373 0.623531
v -0.432847 2.086695 0.595763
v -0.605100 2.131979 0.196609
v -0.733005 1.977373 0.238168
v -0.700361 2.086695 0.227561
v -0.605101 2.131979 -0.196609
v -0.733005 1.977373 -0.238167
v -0.700361 2.086695 -0.227561
v -0.373973 2.131979 -0.514729
v -0.453022 1.977373 -0.623531
v -0.432847 2.086695 -0.595763
v -0.000000 2.131979 -0.636240
v -0.000000 1.977373 -0.770727
v -0.000000 2.086695 -0.736404
v 0.373973 2.131979 -0.514729
v 0.453022 1.977373 -0.623531
v 0.432847 2.086695 -0.595763
v 0.605100 2.131979 -0.196609
v 0.733005 1.977373 -0.238168
v 0.700361 2.086695 -0.227561
v 0.605101 2.131979 0.196609
v 0.733005 1.977373 0.238167
v 0.700361 2.086695 0.227561
v 0.373973 2.131979 0.514729
v 0.453022 1.977373 0.623531
v 0.432847 2.086695 0.595763
v 0.000000 -2.089284 0.168667
v -0.099140 -2.089284 0.136455
v -0.160412 -2.089284 0.052121
v -0.160412 -2.089284 -0.052121
v -0.099140 -2.089284 -0.136455
v -0.000000 -2.089284 -0.168667
v 0.099140 -2.089284 -0.136455
v 0.160412 -2.089284 -0.052121
v 0.160412 -2.089284 0.052121
v 0.099140 -2.089284 0.136455
v 0.000002 -3.908430 0.144817
v -0.085119 -3.908430 0.117159
v -0.137727 -3.908430 0.044751
v -0.137727 -3.908430 -0.044751
v -0.085119 -3.908430 -0.117159
v 0.000002 -3.908430 -0.144817
v 0.085123 -3.908430 -0.117159
v 0.137731 -3.908430 -0.044751
v 0.137731 -3.908430 0.044751
v 0.085123 -3.908430 0.117159
v 0.000002 -4.176209 0.283503
v -0.166637 -4.176209 0.229359
v -0.269625 -4.176209 0.087607
v -0.269625 -4.176209 -0.087607
v -0.166637 -4.176209 -0.229358
v 0.000002 -4.176209 -0.283503
v 0.166640 -4.176209 -0.229358
v 0.269629 -4.176209 -0.087607
v 0.269629 -4.176209 0.087607
v 0.166640 -4.176209 0.229358
v 0.000002 -4.718171 0.205182
v -0.120600 -4.718171 0.165995
v -0.195137 -4.718171 0.063405
v -0.195137 -4.718171 -0.063405
v -0.120601 -4.718171 -0.165995
v 0.000002 -4.718171 -0.205182
v 0.120605 -4.718171 -0.165995
v 0.195142 -4.718171 -0.063405
v 0.195142 -4.718171 0.063405
v 0.120605 -4.718171 0.165995
v 0.000002 -4.888754 0.100175
v -0.058879 -4.888754 0.081043
v -0.095270 -4.888754 0.030956
v -0.095270 -4.888754 -0.030956
v -0.058879 -4.888754 -0.081043
v 0.000002 -4.888754 -0.100175
v 0.058883 -4.888754 -0.081043
v 0.095274 -4.888754 -0.030956
v 0.095274 -4.888754 0.030956
v 0.058884 -4.888754 0.081043
v 0.000002 -4.980815 0.032545
v -0.019127 -4.980815 0.026329
v -0.030950 -4.980815 0.010057
v -0.030950 -4.980815 -0.010057
v -0.019127 -4.980815 -0.026329
v 0.000002 -4.980815 -0.032545
v 0.019131 -4.980815 -0.026329
v 0.030954 -4.980815 -0.010057
v 0.030954 -4.980815 0.010057
v 0.019131 -4.980815 0.026329
v -0.000000 -2.089284 -0.540287
v -0.317573 -2.089284 -0.437102
v -0.513844 -2.089284 -0.166958
v -0.513844 -2.089284 0.166958
v -0.317573 -2.089284 0.437102
v 0.000000 -2.089284 0.540287
v 0.317573 -2.089284 0.437102
v 0.513844 -2.089284 0.166958
v 0.513844 -2.089284 -0.166958
v 0.317573 -2.089284 -0.437102
v 0.000000 -0.858940 0.168667
v -0.099140 -0.858940 0.136455
v -0.160412 -0.858940 0.052121
v -0.160412 -0.858940 -0.052121
v -0.099140 -0.858940 -0.136455
v -0.000000 -0.858940 -0.168667
v 0.099140 -0.858940 -0.136455
v 0.160412 -0.858940 -0.052121
v 0.160412 -0.858940 0.052121
v 0.099140 -0.858940 0.136455
v -0.000000 -0.858940 -0.540287
v 0.000000 -0.858940 0.540287
v -0.317573 -0.858940 -0.437102
v -0.513844 -0.858940 -0.166958
v -0.513844 -0.858940 0.166958
v -0.317573 -0.858940 0.437102
v 0.317573 -0.858940 0.437102
v 0.513844 -0.858940 0.166958
v 0.513844 -0.858940 -0.166958
v 0.317573 -0.858940 -0.437102
vn -0.4640 -0.6139 0.6386
vn -0.5878 -0.0000 0.8090
vn -0.9511 -0.0000 0.3090
vn -0.7507 -0.6139 0.2439
vn 0.5878 -0.0000 0.8090
vn 0.5843 0.1084 0.8042
vn -0.0000 0.1084 0.9941
vn -0.0000 -0.0000 1.0000
vn -0.9511 -0.0000 -0.3090
vn -0.7507 -0.6139 -0.2439
vn -0.9454 0.1084 0.3072
vn -0.9454 0.1084 -0.3072
vn -0.5878 -0.0000 -0.8090
vn -0.4640 -0.6139 -0.6386
vn -0.5843 0.1084 -0.8042
vn -0.0000 -0.0000 -1.0000
vn -0.0000 -0.6139 -0.7894
vn -0.0000 0.1084 -0.9941
vn 0.5878 -0.0000 -0.8090
vn 0.4640 -0.6139 -0.6386
vn 0.5843 0.1084 -0.8042
vn 0.9511 -0.0000 -0.3090
vn 0.7507 -0.6139 -0.2439
vn 0.9454 0.1084 -0.3072
vn 0.9511 -0.0000 0.3090
vn 0.7507 -0.6139 0.2439
vn 0.9454 0.1084 0.3072
vn 0.4640 -0.6139 0.6386
vn -0.5843 0.1084 0.8042
vn -0.0000 -0.6139 0.7894
vn -0.3651 -0.7837 -0.5025
vn -0.0000 -0.7837 -0.6211
vn -0.0000 -0.6437 -0.7653
vn -0.4498 -0.6437 -0.6191
vn -0.0000 0.6257 0.7801
vn -0.4585 0.6257 0.6311
vn -0.0000 0.9682 0.2502
vn -0.1471 0.9682 0.2024
vn -0.7419 0.6257 0.2411
vn -0.2379 0.9682 0.0773
vn -0.7419 0.6257 -0.2411
vn -0.2379 0.9682 -0.0773
vn -0.4585 0.6257 -0.6311
vn -0.1471 0.9682 -0.2024
vn -0.0000 0.6257 -0.7801
vn -0.0000 0.9682 -0.2502
vn 0.4585 0.6257 -0.6311
vn 0.1471 0.9682 -0.2024
vn 0.7419 0.6257 -0.2411
vn 0.2379 0.9682 -0.0773
vn 0.7419 0.6257 0.2411
vn 0.2379 0.9682 0.0773
vn 0.4585 0.6257 0.6311
vn 0.1471 0.9682 0.2024
vn -0.9510 -0.0065 -0.3090
vn -0.5878 -0.0065 -0.8090
vn -0.5703 0.2418 -0.7850
vn -0.9228 0.2418 -0.2998
vn -0.0000 -0.0065 1.0000
vn 0.5878 -0.0065 0.8090
vn 0.3651 -0.7837 0.5025
vn -0.0000 -0.7837 0.6211
vn -0.9510 -0.0065 0.3090
vn -0.5878 -0.0065 0.8090
vn -0.3651 -0.7837 0.5025
vn -0.5907 -0.7837 0.1919
vn 0.3651 -0.7837 -0.5025
vn 0.4498 -0.6437 -0.6191
vn 0.9510 -0.0065 0.3090
vn 0.5907 -0.7837 0.1919
vn -0.5907 -0.7837 -0.1919
vn -0.7278 -0.6437 -0.2365
vn 0.9510 -0.0065 -0.3090
vn 0.5907 -0.7837 -0.1919
vn -0.7278 -0.6437 0.2365
vn 0.5878 -0.0065 -0.8090
vn -0.0000 0.2418 0.9703
vn -0.5703 0.2418 0.7850
vn -0.5805 0.1573 0.7989
vn -0.0000 0.1573 0.9875
vn 0.9228 0.2418 0.2998
vn 0.9228 0.2418 -0.2998
vn -0.0000 -0.0065 -1.0000
vn -0.0000 0.2418 -0.9703
vn -0.9228 0.2418 0.2998
vn 0.5703 0.2418 0.7850
vn 0.5703 0.2418 -0.7850
vn -0.5805 0.1573 -0.7989
vn -0.0000 0.1573 -0.9875
vn -0.0000 -0.3285 -0.9445
vn -0.5552 -0.3285 -0.7641
vn 0.9392 0.1573 0.3052
vn 0.9392 0.1573 -0.3052
vn -0.9392 0.1573 0.3052
vn 0.5805 0.1573 0.7989
vn 0.5805 0.1573 -0.7989
vn -0.9392 0.1573 -0.3052
vn -0.5552 -0.3285 0.7641
vn -0.8983 -0.3285 0.2919
vn -0.7912 -0.5549 0.2571
vn -0.4890 -0.5549 0.6730
vn 0.5552 -0.3285 0.7641
vn 0.8983 -0.3285 0.2919
vn 0.5552 -0.3285 -0.7641
vn -0.8983 -0.3285 -0.2919
vn -0.0000 -0.3285 0.9445
vn 0.8983 -0.3285 -0.2919
vn 0.7912 -0.5549 0.2571
vn 0.4890 -0.5549 0.6730
vn 0.3042 -0.8556 0.4187
vn 0.4922 -0.8556 0.1599
vn 0.4890 -0.5549 -0.6730
vn -0.0000 -0.5549 -0.8319
vn -0.7912 -0.5549 -0.2571
vn -0.0000 -0.5549 0.8319
vn 0.7912 -0.5549 -0.2571
vn -0.4890 -0.5549 -0.6730
vn -0.0000 -0.8556 0.5176
vn -0.3042 -0.8556 0.4187
vn -0.4922 -0.8556 0.1599
vn -0.4922 -0.8556 -0.1599
vn -0.3042 -0.8556 -0.4187
vn -0.0000 -0.8556 -0.5176
vn 0.3042 -0.8556 -0.4187
vn 0.4922 -0.8556 -0.1599
vn 0.4498 -0.6437 0.6191
vn -0.0000 -0.6437 0.7653
vn 0.7278 -0.6437 0.2365
vn 0.7278 -0.6437 -0.2365
vn -0.4498 -0.6437 0.6191
vt 0.730340 0.243287
vt 0.011150 0.243287
vt 0.810250 0.243287
vt 0.810250 0.060996
vt 0.011150 0.060996
vt 0.730340 0.060996
vt 0.650430 0.060996
vt 0.570520 0.060996
vt 0.490610 0.060996
vt 0.410700 0.060996
vt 0.330790 0.060996
vt 0.250880 0.060996
vt 0.170970 0.060996
vt 0.091060 0.060996
vt 0.650430 0.243287
vt 0.570520 0.243287
vt 0.490610 0.243287
vt 0.410700 0.243287
vt 0.330790 0.243287
vt 0.250880 0.243287
vt 0.170970 0.243287
vt 0.091060 0.243287
vt 0.210925 0.379069
vt 0.810250 0.412226
vt 0.011150 0.412226
vt 0.807874 0.425579
vt 0.213907 0.410074
vt 0.013526 0.425579
vt 0.207943 0.410074
vt 0.292424 0.352588
vt 0.730340 0.412226
vt 0.732716 0.425579
vt 0.308236 0.379425
vt 0.727964 0.425579
vt 0.313061 0.375919
vt 0.342794 0.283261
vt 0.650430 0.412226
vt 0.652806 0.425579
vt 0.371360 0.295678
vt 0.648054 0.425579
vt 0.373203 0.290006
vt 0.342793 0.197568
vt 0.570520 0.412226
vt 0.572896 0.425579
vt 0.373203 0.190822
vt 0.568144 0.425579
vt 0.371360 0.185151
vt 0.292424 0.128240
vt 0.490610 0.412226
vt 0.492986 0.425579
vt 0.313061 0.104909
vt 0.488234 0.425579
vt 0.308236 0.101404
vt 0.210925 0.101760
vt 0.410700 0.412226
vt 0.413076 0.425579
vt 0.213907 0.070754
vt 0.408324 0.425579
vt 0.207943 0.070754
vt 0.129426 0.128240
vt 0.330790 0.412226
vt 0.333166 0.425579
vt 0.113614 0.101404
vt 0.328414 0.425579
vt 0.108789 0.104909
vt 0.079057 0.197568
vt 0.250880 0.412226
vt 0.253256 0.425579
vt 0.050490 0.185151
vt 0.248504 0.425579
vt 0.048648 0.190822
vt 0.079057 0.283261
vt 0.170970 0.412226
vt 0.173346 0.425579
vt 0.048648 0.290006
vt 0.168594 0.425579
vt 0.050490 0.295678
vt 0.129426 0.352588
vt 0.091060 0.412226
vt 0.093436 0.425579
vt 0.108789 0.375919
vt 0.088684 0.425579
vt 0.113614 0.379425
vt 0.926654 0.472609
vt 0.960492 0.472609
vt 0.981405 0.472609
vt 0.981405 0.472609
vt 0.960492 0.472609
vt 0.926654 0.472609
vt 0.892816 0.472609
vt 0.871903 0.472609
vt 0.871903 0.472609
vt 0.892816 0.472609
vt 0.926653 0.177238
vt 0.984035 0.171322
vt 0.960491 0.177238
vt 0.968844 0.171322
vt 0.981405 0.177238
vt 0.953652 0.171322
vt 0.981405 0.177238
vt 0.938461 0.171322
vt 0.960491 0.177238
vt 0.923269 0.171322
vt 0.926653 0.177238
vt 0.908078 0.171322
vt 0.892815 0.177238
vt 0.892886 0.171322
vt 0.871902 0.177238
vt 0.877695 0.171322
vt 0.871902 0.177238
vt 0.862503 0.171322
vt 0.892815 0.177238
vt 0.847312 0.171322
vt 0.999227 0.171322
vt 0.984035 0.128602
vt 0.968844 0.128602
vt 0.953652 0.128602
vt 0.938461 0.128602
vt 0.923269 0.128602
vt 0.908078 0.128602
vt 0.892886 0.128602
vt 0.877695 0.128602
vt 0.862503 0.128602
vt 0.847312 0.128602
vt 0.999227 0.128602
vt 0.832120 0.042140
vt 0.984035 0.042140
vt 0.968844 0.042140
vt 0.953652 0.042140
vt 0.938461 0.042140
vt 0.923269 0.042140
vt 0.908078 0.042140
vt 0.892886 0.042140
vt 0.877695 0.042140
vt 0.862503 0.042140
vt 0.999227 0.042140
vt 0.847312 0.042140
vt 0.832120 0.014925
vt 0.984035 0.014925
vt 0.968844 0.014925
vt 0.953652 0.014925
vt 0.938461 0.014925
vt 0.923269 0.014925
vt 0.908078 0.014925
vt 0.892886 0.014925
vt 0.877695 0.014925
vt 0.862503 0.014925
vt 0.847312 0.014925
vt 0.832120 0.000238
vt 0.984035 0.000238
vt 0.968844 0.000238
vt 0.953652 0.000238
vt 0.938461 0.000238
vt 0.923269 0.000238
vt 0.908078 0.000238
vt 0.997431 0.000238
vt 0.892886 0.000238
vt 0.982239 0.000238
vt 0.877695 0.000238
vt 0.967048 0.000238
vt 0.862503 0.000238
vt 0.951857 0.000238
vt 0.847312 0.000238
vt 0.410700 0.060996
vt 0.490610 0.060996
vt 0.570520 0.060996
vt 0.650430 0.060996
vt 0.730340 0.060996
vt 0.810250 0.060996
vt 0.011150 0.060996
vt 0.091060 0.060996
vt 0.170970 0.060996
vt 0.250880 0.060996
vt 0.330790 0.060996
vt 0.926654 0.472609
vt 0.011150 0.060996
vt 0.810250 0.060996
vt 0.960492 0.472609
vt 0.730340 0.060996
vt 0.650430 0.060996
vt 0.981405 0.472609
vt 0.570520 0.060996
vt 0.981405 0.472609
vt 0.490610 0.060996
vt 0.960492 0.472609
vt 0.410700 0.060996
vt 0.926654 0.472609
vt 0.330790 0.060996
vt 0.892816 0.472609
vt 0.871903 0.472609
vt 0.250880 0.060996
vt 0.871903 0.472609
vt 0.170970 0.060996
vt 0.892816 0.472609
vt 0.091060 0.060996
vt 0.410700 0.060996
vt 0.011150 0.060996
vt 0.810250 0.060996
vt 0.490610 0.060996
vt 0.570520 0.060996
vt 0.650430 0.060996
vt 0.730340 0.060996
vt 0.091060 0.060996
vt 0.170970 0.060996
vt 0.250880 0.060996
vt 0.330790 0.060996
s 1
usemtl Lorenna_Eyes
f 4/6/1 1/1/2 13/15/3 5/7/4
f 20/22/5 49/79/6 22/25/7 2/2/8
f 5/7/4 13/15/3 14/16/9 6/8/10
f 13/15/3 28/37/11 31/43/12 14/16/9
f 6/8/10 14/16/9 15/17/13 7/9/14
f 14/16/9 31/43/12 34/49/15 15/17/13
f 7/9/14 15/17/13 16/18/16 8/10/17
f 15/17/13 34/49/15 37/55/18 16/18/16
f 8/10/17 16/18/16 17/19/19 9/11/20
f 16/18/16 37/55/18 40/61/21 17/19/19
f 9/11/20 17/19/19 18/20/22 10/12/23
f 17/19/19 40/61/21 43/67/24 18/20/22
f 10/12/23 18/20/22 19/21/25 11/13/26
f 18/20/22 43/67/24 46/73/27 19/21/25
f 11/13/26 19/21/25 20/22/5 12/14/28
f 19/21/25 46/73/27 49/79/6 20/22/5
f 2/3/8 22/24/7 25/31/29 1/1/2
f 12/14/28 20/22/5 2/2/8 3/5/30
f 3/4/30 2/3/8 1/1/2 4/6/1
f 1/1/2 25/31/29 28/37/11 13/15/3
f 117/171/31 116/170/32 132/197/33 137/203/34
f 25/31/29 22/24/7 23/26/35 26/32/36
f 26/33/36 23/27/35 21/23/37 24/30/38
f 28/37/11 25/31/29 26/34/36 29/38/39
f 29/39/39 26/35/36 24/30/38 27/36/40
f 31/43/12 28/37/11 29/40/39 32/44/41
f 32/45/41 29/41/39 27/36/40 30/42/42
f 34/49/15 31/43/12 32/46/41 35/50/43
f 35/51/43 32/47/41 30/42/42 33/48/44
f 37/55/18 34/49/15 35/52/43 38/56/45
f 38/57/45 35/53/43 33/48/44 36/54/46
f 40/61/21 37/55/18 38/58/45 41/62/47
f 41/63/47 38/59/45 36/54/46 39/60/48
f 43/67/24 40/61/21 41/64/47 44/68/49
f 44/69/49 41/65/47 39/60/48 42/66/50
f 46/73/27 43/67/24 44/70/49 47/74/51
f 47/75/51 44/71/49 42/66/50 45/72/52
f 49/79/6 46/73/27 47/76/51 50/80/53
f 50/81/53 47/77/51 45/72/52 48/78/54
f 22/25/7 49/79/6 50/82/53 23/28/35
f 23/29/35 50/83/53 48/78/54 21/23/37
f 24/30/38 21/23/37 48/78/54 45/72/52 42/66/50 39/60/48 36/54/46 33/48/44 30/42/42 27/36/40
f 54/87/55 55/88/56 65/102/57 64/100/58
f 51/84/59 60/93/60 130/194/61 121/175/62
f 53/86/63 52/85/64 122/178/65 123/181/66
f 116/169/32 115/168/67 136/202/68 132/198/33
f 60/93/60 59/92/69 129/192/70 130/194/61
f 52/85/64 51/84/59 121/175/62 122/178/65
f 118/172/71 117/171/31 137/203/34 138/204/72
f 59/92/69 58/91/73 128/190/74 129/192/70
f 119/173/66 118/172/71 138/204/72 139/205/75
f 58/91/73 57/90/76 127/189/67 128/190/74
f 61/95/77 62/97/78 72/116/79 71/115/80
f 51/84/59 52/85/64 62/96/78 61/94/77
f 58/91/73 59/92/69 69/110/81 68/108/82
f 55/88/56 56/89/83 66/104/84 65/102/57
f 52/85/64 53/86/63 63/98/85 62/96/78
f 59/92/69 60/93/60 70/112/86 69/110/81
f 56/89/83 57/90/76 67/106/87 66/104/84
f 53/86/63 54/87/55 64/100/58 63/98/85
f 60/93/60 51/84/59 61/94/77 70/112/86
f 57/90/76 58/91/73 68/108/82 67/106/87
f 75/119/88 76/120/89 86/132/90 85/131/91
f 68/109/82 69/111/81 79/123/92 78/122/93
f 65/103/57 66/105/84 76/120/89 75/119/88
f 62/97/78 63/99/85 73/117/94 72/116/79
f 69/111/81 70/113/86 80/124/95 79/123/92
f 66/105/84 67/107/87 77/121/96 76/120/89
f 63/99/85 64/101/58 74/118/97 73/117/94
f 70/114/86 61/95/77 71/115/80 80/125/95
f 67/107/87 68/109/82 78/122/93 77/121/96
f 64/101/58 65/103/57 75/119/88 74/118/97
f 82/128/98 83/129/99 93/141/100 92/140/101
f 72/116/79 73/117/94 83/129/99 82/128/98
f 79/123/92 80/124/95 90/137/102 89/135/103
f 76/120/89 77/121/96 87/133/104 86/132/90
f 73/117/94 74/118/97 84/130/105 83/129/99
f 80/125/95 71/115/80 81/127/106 90/136/102
f 77/121/96 78/122/93 88/134/107 87/133/104
f 74/118/97 75/119/88 85/131/91 84/130/105
f 71/115/80 72/116/79 82/128/98 81/127/106
f 78/122/93 79/123/92 89/135/103 88/134/107
f 99/147/108 100/148/109 110/163/110 109/161/111
f 89/135/103 90/137/102 100/148/109 99/147/108
f 86/132/90 87/133/104 97/145/112 96/144/113
f 83/129/99 84/130/105 94/142/114 93/141/100
f 90/137/102 81/126/106 91/138/115 100/148/109
f 87/133/104 88/134/107 98/146/116 97/145/112
f 84/130/105 85/131/91 95/143/117 94/142/114
f 81/127/106 82/128/98 92/140/101 91/139/115
f 88/134/107 89/135/103 99/147/108 98/146/116
f 85/131/91 86/132/90 96/144/113 95/143/117
f 101/150/118 102/151/119 103/152/120 104/153/121 105/154/122 106/155/123 107/156/124 108/158/125 109/160/111 110/162/110
f 96/144/113 97/145/112 107/157/124 106/155/123
f 93/141/100 94/142/114 104/153/121 103/152/120
f 100/148/109 91/138/115 101/149/118 110/163/110
f 97/145/112 98/146/116 108/159/125 107/157/124
f 94/142/114 95/143/117 105/154/122 104/153/121
f 91/139/115 92/140/101 102/151/119 101/150/118
f 98/146/116 99/147/108 109/161/111 108/159/125
f 95/143/117 96/144/113 106/155/123 105/154/122
f 92/140/101 93/141/100 103/152/120 102/151/119
f 8/10/17 9/11/20 120/174/65 111/164/62
f 9/11/20 10/12/23 119/173/66 120/174/65
f 10/12/23 11/13/26 118/172/71 119/173/66
f 11/13/26 12/14/28 117/171/31 118/172/71
f 3/4/30 4/6/1 115/168/67 116/169/32
f 12/14/28 3/5/30 116/170/32 117/171/31
f 4/6/1 5/7/4 114/167/74 115/168/67
f 5/7/4 6/8/10 113/166/70 114/167/74
f 6/8/10 7/9/14 112/165/61 113/166/70
f 7/9/14 8/10/17 111/164/62 112/165/61
f 133/199/126 131/196/127 126/186/32 125/184/31
f 134/200/128 133/199/126 125/184/31 124/182/71
f 135/201/129 134/200/128 124/182/71 123/180/66
f 136/202/68 135/201/129 123/180/66 122/179/65
f 137/203/34 132/197/33 121/176/62 130/195/61
f 132/198/33 136/202/68 122/179/65 121/177/62
f 138/204/72 137/203/34 130/195/61 129/193/70
f 139/205/75 138/204/72 129/193/70 128/191/74
f 140/206/130 139/205/75 128/191/74 127/188/67
f 131/196/127 140/206/130 127/188/67 126/186/32
f 54/87/55 53/86/63 123/181/66 124/183/71
f 115/168/67 114/167/74 135/201/129 136/202/68
f 55/88/56 54/87/55 124/183/71 125/185/31
f 114/167/74 113/166/70 134/200/128 135/201/129
f 56/89/83 55/88/56 125/185/31 126/187/32
f 111/164/62 120/174/65 140/206/130 131/196/127
f 113/166/70 112/165/61 133/199/126 134/200/128
f 57/90/76 56/89/83 126/187/32 127/189/67
f 120/174/65 119/173/66 139/205/75 140/206/130
f 112/165/61 111/164/62 131/196/127 133/199/126
