# Blender 3.3.1
# www.blender.org
mtllib Lorenna_Eyes_bottle.mtl
o Lorenna_Eyes.001
v 1.418428 -0.000139 -0.610771
v 1.418428 0.549233 -0.945192
v 1.928823 0.549233 -0.610771
v 1.418428 0.160768 -0.847243
v 1.713105 0.232053 -0.803849
v 1.779332 0.549233 -0.847243
v 1.779332 0.160768 -0.610771
v 1.418428 3.601823 -0.945192
v 1.418428 4.151196 -0.610771
v 1.928823 3.601823 -0.610771
v 1.418428 3.990288 -0.847243
v 1.713105 3.919003 -0.803849
v 1.779332 3.990288 -0.610771
v 1.779332 3.601823 -0.847243
v 1.418429 -0.000139 1.247442
v 1.928824 0.549233 1.247442
v 1.418429 0.549233 1.581863
v 1.779333 0.160768 1.247442
v 1.713105 0.232053 1.440520
v 1.779333 0.549233 1.483913
v 1.418429 0.160768 1.483913
v 1.418429 4.151196 1.247442
v 1.418429 3.601823 1.581863
v 1.928824 3.601823 1.247442
v 1.418429 3.990288 1.483913
v 1.713106 3.919003 1.440520
v 1.779333 3.601823 1.483913
v 1.779333 3.990288 1.247442
v -1.417583 -0.000139 -0.610770
v -1.927979 0.549233 -0.610770
v -1.417584 0.549233 -0.945192
v -1.778487 0.160768 -0.610770
v -1.712260 0.232053 -0.803848
v -1.778487 0.549233 -0.847242
v -1.417583 0.160768 -0.847242
v -1.417583 4.151196 -0.610770
v -1.417584 3.601823 -0.945192
v -1.927979 3.601823 -0.610770
v -1.417584 3.990288 -0.847242
v -1.712260 3.919003 -0.803848
v -1.778488 3.601823 -0.847242
v -1.778488 3.990288 -0.610770
v -1.417583 -0.000139 1.247443
v -1.417583 0.549233 1.581864
v -1.927978 0.549233 1.247443
v -1.417583 0.160768 1.483914
v -1.712260 0.232053 1.440521
v -1.778487 0.549233 1.483914
v -1.778487 0.160768 1.247443
v -1.417583 4.151196 1.247443
v -1.927978 3.601823 1.247443
v -1.417583 3.601823 1.581864
v -1.778487 3.990288 1.247443
v -1.712260 3.919003 1.440521
v -1.778486 3.601823 1.483914
v -1.417583 3.990288 1.483914
v 0.000423 5.180846 0.628160
v -0.181687 5.180846 0.568989
v 0.000423 4.154832 0.831343
v 0.000423 5.180846 0.831343
v -0.301115 4.154832 0.733368
v -0.301115 5.180846 0.733368
v -0.487476 4.154832 0.476864
v -0.487476 5.180846 0.476864
v -0.487476 4.154832 0.159808
v -0.487476 5.180846 0.159808
v -0.301116 4.154832 -0.096696
v -0.301116 5.180846 -0.096696
v 0.000423 4.154832 -0.194672
v 0.000423 5.180846 -0.194672
v 0.301961 4.154832 -0.096696
v 0.301961 5.180846 -0.096696
v 0.488322 4.154832 0.159807
v 0.488322 5.180846 0.159807
v 0.488322 4.154832 0.476864
v 0.488322 5.180846 0.476864
v 0.301961 4.154832 0.733367
v 0.301961 5.180846 0.733367
v -0.294238 5.180846 0.414077
v -0.294238 5.180846 0.222595
v -0.181688 5.180846 0.067682
v 0.000423 5.180846 0.008511
v 0.182533 5.180846 0.067682
v 0.295083 5.180846 0.222595
v 0.295083 5.180846 0.414077
v 0.182533 5.180846 0.568989
v 0.000423 4.156188 0.628160
v 0.182533 4.156188 0.568989
v 0.295083 4.156188 0.414077
v 0.295083 4.156188 0.222595
v 0.182533 4.156188 0.067682
v 0.000422 4.156188 0.008511
v -0.181688 4.156188 0.067682
v -0.294238 4.156188 0.222595
v -0.294238 4.156188 0.414077
v -0.181687 4.156188 0.568989
vn -0.1232 -0.1147 -0.9857
vn -0.1232 0.1147 -0.9857
vn 0.1232 0.1147 -0.9857
vn 0.1232 -0.1147 -0.9857
vn -0.9525 -0.1651 0.2561
vn -0.9525 0.1651 0.2561
vn -0.9525 0.1651 -0.2561
vn -0.9525 -0.1651 -0.2561
vn -0.1871 0.9447 0.2694
vn 0.1871 0.9447 0.2694
vn 0.1871 0.9447 -0.2694
vn -0.1871 0.9447 -0.2694
vn 0.9525 -0.1651 -0.2561
vn 0.9525 0.1651 -0.2561
vn 0.9525 0.1651 0.2561
vn 0.9525 -0.1651 0.2561
vn 0.1232 -0.1147 0.9857
vn 0.1232 0.1147 0.9857
vn -0.1232 0.1147 0.9857
vn -0.1232 -0.1147 0.9857
vn 0.1871 -0.9447 -0.2694
vn 0.1464 -0.5813 -0.8004
vn 0.5136 -0.4819 -0.7100
vn 0.6995 -0.6687 -0.2521
vn 0.6005 -0.1326 -0.7885
vn 0.1464 0.5813 -0.8004
vn 0.5136 0.4819 -0.7100
vn 0.6005 0.1326 -0.7885
vn 0.6995 0.6687 -0.2521
vn 0.1871 -0.9447 0.2694
vn 0.6995 -0.6687 0.2521
vn 0.5136 -0.4819 0.7100
vn 0.1464 -0.5813 0.8004
vn 0.6005 -0.1326 0.7885
vn 0.1464 0.5813 0.8004
vn 0.5136 0.4819 0.7100
vn 0.6995 0.6687 0.2521
vn 0.6005 0.1326 0.7885
vn -0.1871 -0.9447 -0.2694
vn -0.6995 -0.6687 -0.2521
vn -0.5136 -0.4819 -0.7100
vn -0.1464 -0.5813 -0.8004
vn -0.6005 -0.1326 -0.7885
vn -0.1464 0.5813 -0.8004
vn -0.5136 0.4819 -0.7100
vn -0.6995 0.6687 -0.2521
vn -0.6005 0.1326 -0.7885
vn -0.1871 -0.9447 0.2694
vn -0.1464 -0.5813 0.8004
vn -0.5136 -0.4819 0.7100
vn -0.6995 -0.6687 0.2521
vn -0.6005 -0.1326 0.7885
vn -0.6995 0.6687 0.2521
vn -0.5136 0.4819 0.7100
vn -0.1464 0.5813 0.8004
vn -0.6005 0.1326 0.7885
vn -0.3651 0.7837 0.5025
vn -0.0000 0.7837 0.6211
vn -0.0000 -0.0000 1.0000
vn -0.5878 -0.0000 0.8090
vn 0.4498 0.6437 -0.6191
vn -0.0000 0.6437 -0.7653
vn -0.0000 0.6437 0.7653
vn -0.4498 0.6437 0.6191
vn -0.5907 0.7837 -0.1919
vn -0.5907 0.7837 0.1919
vn -0.9511 -0.0000 0.3090
vn -0.9511 -0.0000 -0.3090
vn 0.7278 0.6437 0.2365
vn 0.7278 0.6437 -0.2365
vn -0.7278 0.6437 0.2365
vn 0.3651 0.7837 0.5025
vn 0.5907 0.7837 0.1919
vn 0.9511 -0.0000 0.3090
vn 0.5878 -0.0000 0.8090
vn -0.7278 0.6437 -0.2365
vn 0.5907 0.7837 -0.1919
vn 0.3651 0.7837 -0.5025
vn 0.5878 -0.0000 -0.8090
vn 0.9511 -0.0000 -0.3090
vn -0.4498 0.6437 -0.6191
vn -0.5878 -0.0000 -0.8090
vn -0.0000 -0.0000 -1.0000
vn 0.4498 0.6437 0.6191
vn -0.3651 0.7837 -0.5025
vn -0.0000 0.7837 -0.6211
vt 0.409724 0.513821
vt 0.230091 0.559170
vt 0.409724 0.563430
vt 0.264398 0.596096
vt 0.363635 0.563430
vt 0.409724 0.528351
vt 0.383114 0.534788
vt 0.377134 0.563430
vt 0.377134 0.528351
vt 0.254349 0.569985
vt 0.409724 0.839078
vt 0.230091 0.838205
vt 0.409724 0.888686
vt 0.363635 0.839078
vt 0.264398 0.801279
vt 0.409724 0.874156
vt 0.383114 0.867719
vt 0.377134 0.874156
vt 0.254349 0.827390
vt 0.377134 0.839078
vt 0.233985 0.560891
vt 0.230091 0.559170
vt 0.264398 0.596096
vt 0.267659 0.597137
vt 0.233985 0.597137
vt 0.257796 0.571507
vt 0.254349 0.569985
vt 0.253426 0.576210
vt 0.257796 0.597137
vt 0.233985 0.571507
vt 0.230091 0.838205
vt 0.233985 0.834784
vt 0.233985 0.798538
vt 0.264398 0.801278
vt 0.267659 0.798538
vt 0.233985 0.824168
vt 0.253427 0.819465
vt 0.257796 0.798538
vt 0.257796 0.824168
vt 0.254349 0.827390
vt 0.665815 0.513821
vt 0.039466 0.559170
vt 0.005160 0.596096
vt 0.711903 0.563430
vt 0.665815 0.563430
vt 0.698404 0.528351
vt 0.015208 0.569985
vt 0.692424 0.534788
vt 0.698404 0.563430
vt 0.665815 0.528351
vt 0.039466 0.838205
vt 0.665815 0.888686
vt 0.665815 0.839078
vt 0.005160 0.801279
vt 0.711903 0.839078
vt 0.665815 0.874156
vt 0.692424 0.867719
vt 0.698404 0.839078
vt 0.698404 0.874156
vt 0.015208 0.827390
vt 0.046872 0.560891
vt 0.039466 0.559170
vt 0.046872 0.597137
vt 0.013198 0.597137
vt 0.005160 0.596096
vt 0.046872 0.571507
vt 0.027430 0.576210
vt 0.023061 0.597137
vt 0.023061 0.571507
vt 0.015208 0.569985
vt 0.046872 0.834784
vt 0.039466 0.838205
vt 0.013198 0.798538
vt 0.005160 0.801278
vt 0.046872 0.798538
vt 0.023061 0.824168
vt 0.015208 0.827390
vt 0.027430 0.819465
vt 0.023061 0.798538
vt 0.046872 0.824168
vt 0.225006 0.999871
vt 0.000609 0.999871
vt 0.202566 0.999871
vt 0.225006 0.859541
vt 0.000609 0.859541
vt 0.225006 0.999871
vt 0.000609 0.999871
vt 0.202566 0.859541
vt 0.202566 0.999871
vt 0.180126 0.859541
vt 0.180126 0.999871
vt 0.157686 0.859541
vt 0.157686 0.999871
vt 0.135247 0.859541
vt 0.135247 0.999871
vt 0.112807 0.859541
vt 0.112807 0.999871
vt 0.090367 0.859541
vt 0.090367 0.999871
vt 0.067928 0.859541
vt 0.067928 0.999871
vt 0.045488 0.859541
vt 0.045488 0.999871
vt 0.023048 0.859541
vt 0.023048 0.999871
vt 0.180126 0.999871
vt 0.157686 0.999871
vt 0.135247 0.999871
vt 0.112807 0.999871
vt 0.090367 0.999871
vt 0.067928 0.999871
vt 0.045488 0.999871
vt 0.023048 0.999871
vt 0.225006 0.999871
vt 0.000609 0.999871
vt 0.023048 0.999871
vt 0.045488 0.999871
vt 0.067928 0.999871
vt 0.090367 0.999871
vt 0.112807 0.999871
vt 0.135247 0.999871
vt 0.157686 0.999871
vt 0.180126 0.999871
vt 0.202566 0.999871
s 1
usemtl Lorenna_Eyes
f 31/45/1 37/53/2 8/11/3 2/3/4
f 45/65/5 51/74/6 38/54/7 30/43/8
f 50/72/9 22/31/10 9/12/11 36/51/12
f 3/4/13 10/15/14 24/34/15 16/23/16
f 17/25/17 23/33/18 52/75/19 44/63/20
f 1/1/21 4/6/22 5/7/23 7/9/24
f 2/3/4 6/8/25 5/7/23 4/6/22
f 3/5/13 7/9/24 5/7/23 6/8/25
f 8/11/3 11/16/26 12/17/27 14/20/28
f 9/13/11 13/18/29 12/17/27 11/16/26
f 10/14/14 14/20/28 12/17/27 13/18/29
f 15/21/30 18/26/31 19/28/32 21/30/33
f 16/24/16 20/29/34 19/28/32 18/26/31
f 17/25/17 21/30/33 19/28/32 20/29/34
f 22/32/10 25/36/35 26/37/36 28/39/37
f 23/33/18 27/38/38 26/37/36 25/36/35
f 24/35/15 28/39/37 26/37/36 27/38/38
f 29/41/39 32/46/40 33/48/41 35/50/42
f 30/44/8 34/49/43 33/48/41 32/46/40
f 31/45/1 35/50/42 33/48/41 34/49/43
f 36/52/12 39/56/44 40/57/45 42/59/46
f 37/53/2 41/58/47 40/57/45 39/56/44
f 38/55/7 42/59/46 40/57/45 41/58/47
f 43/61/48 46/66/49 47/67/50 49/69/51
f 44/63/20 48/68/52 47/67/50 46/66/49
f 45/64/5 49/69/51 47/67/50 48/68/52
f 50/71/9 53/76/53 54/78/54 56/80/55
f 51/73/6 55/79/56 54/78/54 53/76/53
f 52/75/19 56/80/55 54/78/54 55/79/56
f 15/22/30 1/2/21 7/10/24 18/27/31
f 18/27/31 7/10/24 3/4/13 16/23/16
f 2/3/4 8/11/3 14/20/28 6/8/25
f 6/8/25 14/20/28 10/14/14 3/5/13
f 9/12/11 22/31/10 28/40/37 13/19/29
f 13/19/29 28/40/37 24/34/15 10/15/14
f 23/33/18 17/25/17 20/29/34 27/38/38
f 27/38/38 20/29/34 16/24/16 24/35/15
f 43/61/48 15/21/30 21/30/33 46/66/49
f 46/66/49 21/30/33 17/25/17 44/63/20
f 22/32/10 50/71/9 56/80/55 25/36/35
f 25/36/35 56/80/55 52/75/19 23/33/18
f 51/73/6 45/64/5 48/68/52 55/79/56
f 55/79/56 48/68/52 44/63/20 52/75/19
f 29/42/39 43/62/48 49/70/51 32/47/40
f 32/47/40 49/70/51 45/65/5 30/43/8
f 50/72/9 36/51/12 42/60/46 53/77/53
f 53/77/53 42/60/46 38/54/7 51/74/6
f 37/53/2 31/45/1 34/49/43 41/58/47
f 41/58/47 34/49/43 30/44/8 38/55/7
f 1/1/21 29/41/39 35/50/42 4/6/22
f 4/6/22 35/50/42 31/45/1 2/3/4
f 36/52/12 9/13/11 11/16/26 39/56/44
f 39/56/44 11/16/26 8/11/3 37/53/2
f 15/22/30 43/62/48 29/42/39 1/2/21
f 83/110/57 82/109/58 92/120/59 91/119/60
f 72/99/61 70/97/62 82/109/58 83/110/57
f 59/84/59 60/86/63 62/89/64 61/88/60
f 85/112/65 84/111/66 90/118/67 89/117/68
f 76/103/69 74/101/70 84/111/66 85/112/65
f 61/88/60 62/89/64 64/91/71 63/90/67
f 81/108/72 80/107/73 94/122/74 93/121/75
f 66/93/76 64/91/71 79/106/77 80/107/73
f 63/90/67 64/91/71 66/93/76 65/92/68
f 79/106/77 58/83/78 96/124/79 95/123/80
f 70/97/62 68/95/81 81/108/72 82/109/58
f 65/92/68 66/93/76 68/95/81 67/94/82
f 84/111/66 83/110/57 91/119/60 90/118/67
f 74/101/70 72/99/61 83/110/57 84/111/66
f 67/94/82 68/95/81 70/97/62 69/96/83
f 82/109/58 81/108/72 93/121/75 92/120/59
f 78/105/84 76/103/69 85/112/65 86/113/85
f 69/96/83 70/97/62 72/99/61 71/98/79
f 80/107/73 79/106/77 95/123/80 94/122/74
f 62/89/64 60/86/63 57/81/86 58/83/78
f 71/98/79 72/99/61 74/101/70 73/100/80
f 58/83/78 57/81/86 87/114/83 96/124/79
f 60/87/63 78/105/84 86/113/85 57/82/86
f 73/100/80 74/101/70 76/103/69 75/102/74
f 68/95/81 66/93/76 80/107/73 81/108/72
f 64/91/71 62/89/64 58/83/78 79/106/77
f 75/102/74 76/103/69 78/105/84 77/104/75
f 57/82/86 86/113/85 88/116/82 87/115/83
f 77/104/75 78/105/84 60/87/63 59/85/59
f 86/113/85 85/112/65 89/117/68 88/116/82
