# Blender 3.3.1
# www.blender.org
mtllib antiflu.mtl
o antiflu
v -1.000000 0.000029 1.000000
v -1.000000 4.004629 1.000000
v -1.000000 0.000029 -1.000000
v -1.000000 4.004629 -1.000000
v 1.000000 0.000029 1.000000
v 1.000000 4.004629 1.000000
v 1.000000 0.000029 -1.000000
v 1.000000 4.004629 -1.000000
vn -1.0000 -0.0000 -0.0000
vn -0.0000 -0.0000 -1.0000
vn 1.0000 -0.0000 -0.0000
vn -0.0000 -0.0000 1.0000
vn -0.0000 -1.0000 -0.0000
vn -0.0000 1.0000 -0.0000
vt 0.582603 0.006588
vt 0.587981 0.006625
vt 0.783309 0.000248
vt 0.582603 0.993412
vt 0.587981 0.993375
vt 0.784214 0.999987
vt 0.392813 0.006588
vt 0.387525 0.005984
vt 0.999963 0.000248
vt 0.392813 0.993412
vt 0.387525 0.994017
vt 0.999996 0.999987
vt 0.002461 0.000000
vt 0.778011 0.006625
vt 0.783309 0.494980
vt 0.002461 0.994882
vt 0.778011 0.993375
vt 0.784214 0.506237
vt 0.197347 0.005984
vt 0.192448 0.000000
vt 0.999963 0.494980
vt 0.197347 0.994017
vt 0.192448 0.994882
vt 0.999996 0.506237
s 0
usemtl AntiFlu
f 1/1/1 2/4/1 4/10/1 3/7/1
f 3/8/2 4/11/2 8/22/2 7/19/2
f 7/20/3 8/23/3 6/16/3 5/13/3
f 5/14/4 6/17/4 2/5/4 1/2/4
f 3/9/5 7/21/5 5/15/5 1/3/5
f 8/24/6 4/12/6 2/6/6 6/18/6
