# Blender 3.3.1
# www.blender.org
mtllib I-QUEEN.mtl
o I-QUEEN
v -1.273979 -0.350788 2.543159
v -1.273979 0.527983 2.543159
v -1.273979 -0.350788 -1.695439
v -1.273979 0.527983 -1.695439
v 1.273979 -0.350788 2.543159
v 1.273979 0.527983 2.543159
v 1.273979 -0.350788 -1.695439
v 1.273979 0.527983 -1.695439
v -1.273979 -0.354390 -1.695439
v 1.273979 -0.354390 -1.695439
vn -0.5774 -0.5774 0.5774
vn -0.5774 0.5774 0.5774
vn -0.5774 0.5774 -0.5774
vn -0.5774 -0.5774 -0.5774
vn 0.5774 0.5774 -0.5774
vn 0.5774 -0.5774 -0.5774
vn 0.5774 0.5774 0.5774
vn 0.5774 -0.5774 0.5774
vt 0.000472 0.004312
vt 0.635217 0.822698
vt 0.999087 0.001065
vt 0.131323 0.004312
vt 0.635217 0.999681
vt 0.135150 0.001048
vt 0.000472 0.811483
vt 0.136082 0.997638
vt 0.999087 0.814294
vt 0.131323 0.811482
vt 0.136082 0.825571
vt 0.135150 0.814496
vt 0.632504 0.002166
vt 0.998904 0.822698
vt 0.635267 0.001065
vt 0.501013 0.002166
vt 0.998904 0.999681
vt 0.499185 0.001048
vt 0.498895 0.997638
vt 0.632504 0.812487
vt 0.635267 0.814294
vt 0.498895 0.825571
vt 0.501013 0.812487
vt 0.499185 0.814496
s 1
usemtl I-QUEEN
f 1/1/1 2/4/2 4/10/3 3/7/4
f 3/8/4 4/11/3 8/22/5 7/19/6
f 7/20/6 8/23/5 6/16/7 5/13/8
f 5/14/8 6/17/7 2/5/2 1/2/1
f 3/9/4 7/21/6 5/15/8 1/3/1
f 8/24/5 4/12/3 2/6/2 6/18/7
l 10 9
