# Blender 3.3.1
# www.blender.org
mtllib Lorenna_Lips_cover.mtl
o Lorenna_Lips
v 0.339817 0.006018 -0.737384
v -0.000000 0.006018 -0.809615
v -0.000000 0.006018 -0.974142
v -0.000000 5.458122 -0.974142
v 0.406736 0.006018 -0.887687
v 0.406736 5.458122 -0.887687
v 0.743145 0.006018 -0.643272
v 0.743145 5.458122 -0.643272
v 0.951056 0.006018 -0.283158
v 0.951056 5.458122 -0.283158
v 0.994522 0.006018 0.130387
v 0.994522 5.458122 0.130387
v 0.866025 0.006018 0.525858
v 0.866025 5.458122 0.525858
v 0.587785 0.006018 0.834875
v 0.587785 5.458122 0.834875
v 0.207911 0.006018 1.004006
v 0.207911 5.458122 1.004006
v -0.207912 0.006018 1.004006
v -0.207912 5.458122 1.004006
v -0.587786 0.006018 0.834875
v -0.587786 5.458122 0.834875
v -0.866026 0.006018 0.525858
v -0.866026 5.458122 0.525858
v -0.994522 0.006018 0.130387
v -0.994522 5.458122 0.130387
v -0.951057 0.006018 -0.283158
v -0.951057 5.458122 -0.283158
v -0.743145 0.006018 -0.643272
v -0.743145 5.458122 -0.643272
v -0.406737 0.006018 -0.887687
v -0.406737 5.458122 -0.887687
v 0.620877 0.006018 -0.533182
v 0.794581 0.006018 -0.232317
v 0.830895 0.006018 0.113189
v 0.723540 0.006018 0.443595
v 0.491078 0.006018 0.701770
v 0.173704 0.006018 0.843074
v -0.173705 0.006018 0.843074
v -0.491079 0.006018 0.701770
v -0.723541 0.006018 0.443595
v -0.830896 0.006018 0.113189
v -0.794582 0.006018 -0.232317
v -0.620878 0.006018 -0.533182
v -0.339818 0.006018 -0.737384
v -0.339818 5.287179 -0.737384
v 0.000000 5.287179 -0.809615
v -0.620878 5.287179 -0.533182
v -0.794582 5.287179 -0.232317
v -0.830896 5.287179 0.113189
v -0.723541 5.287179 0.443595
v -0.491079 5.287179 0.701770
v -0.173705 5.287179 0.843074
v 0.173704 5.287179 0.843074
v 0.491078 5.287179 0.701770
v 0.723541 5.287179 0.443595
v 0.830896 5.287179 0.113189
v 0.794582 5.287179 -0.232317
v 0.620877 5.287179 -0.533182
v 0.339818 5.287179 -0.737384
vn -0.6498 -0.7570 -0.0683
vn -0.7118 -0.6632 0.2313
vn -0.6214 -0.7570 0.2019
vn -0.6482 -0.6632 0.3742
vn 0.3840 -0.7570 -0.5286
vn -0.4399 -0.6632 0.6055
vn -0.0000 0.6632 -0.7485
vn 0.3044 -0.6632 -0.6838
vn -0.0000 -0.6632 -0.7485
vn -0.2658 -0.7570 0.5969
vn -0.0000 -0.6632 0.7485
vn -0.0000 -0.7570 0.6534
vn 0.4399 -0.6632 0.6055
vn -0.1358 -0.7570 -0.6391
vn -0.3840 -0.7570 -0.5286
vn 0.3044 0.6632 -0.6838
vn 0.5562 -0.6632 -0.5008
vn 0.3044 -0.6632 0.6838
vn 0.2658 -0.7570 0.5969
vn 0.7444 -0.6632 0.0782
vn 0.7118 -0.6632 -0.2313
vn 0.5562 0.6632 -0.5008
vn 0.5658 -0.7570 -0.3267
vn 0.4399 -0.6632 -0.6055
vn -0.3044 -0.6632 -0.6838
vn 0.4856 -0.7570 0.4372
vn -0.5562 -0.6632 -0.5008
vn 0.7118 0.6632 -0.2313
vn 0.7118 -0.6632 0.2313
vn 0.6214 -0.7570 0.2019
vn -0.7444 -0.6632 0.0782
vn 0.7444 0.6632 0.0782
vn 0.6482 -0.6632 0.3742
vn -0.5562 -0.6632 0.5008
vn -0.4856 -0.7570 0.4372
vn -0.1556 -0.6632 0.7321
vn 0.1556 -0.6632 0.7321
vn 0.6482 0.6632 0.3742
vn -0.6482 -0.6632 -0.3742
vn -0.5658 -0.7570 -0.3267
vn 0.4399 0.6632 0.6055
vn 0.1556 -0.6632 -0.7321
vn 0.1358 -0.7570 -0.6391
vn 0.1556 0.6632 0.7321
vn 0.7444 -0.6632 -0.0782
vn 0.6498 -0.7570 -0.0683
vn -0.1556 0.6632 0.7321
vn -0.3044 -0.6632 0.6838
vn -0.4399 0.6632 0.6055
vn -0.7444 -0.6632 -0.0782
vn -0.6482 0.6632 0.3742
vn -0.1556 -0.6632 -0.7321
vn -0.7444 0.6632 0.0782
vn -0.7118 -0.6632 -0.2313
vn 0.5562 -0.6632 0.5008
vn -0.7118 0.6632 -0.2313
vn 0.6482 -0.6632 -0.3742
vn -0.5562 0.6632 -0.5008
vn -0.4399 -0.6632 -0.6055
vn -0.3044 0.6632 -0.6838
vt 0.197880 0.468712
vt 0.205977 0.468712
vt 0.224420 0.468712
vt 0.224420 0.996846
vt 0.214729 0.468712
vt 0.214729 0.996846
vt 0.187330 0.468712
vt 0.187330 0.996846
vt 0.146961 0.468712
vt 0.146961 0.996846
vt 0.100602 0.468712
vt 0.100602 0.996846
vt 0.056269 0.468712
vt 0.056269 0.996846
vt 0.021628 0.468712
vt 0.021628 0.996846
vt 0.002668 0.468712
vt 0.002668 0.996846
vt 0.002668 0.468712
vt 0.002668 0.996846
vt 0.021628 0.468712
vt 0.021628 0.996846
vt 0.056269 0.468712
vt 0.056269 0.996846
vt 0.100602 0.468712
vt 0.100602 0.996846
vt 0.146961 0.468712
vt 0.146961 0.996846
vt 0.187330 0.468712
vt 0.187330 0.996846
vt 0.214729 0.468712
vt 0.214729 0.996846
vt 0.174988 0.468712
vt 0.141261 0.468712
vt 0.102530 0.468712
vt 0.065491 0.468712
vt 0.036549 0.468712
vt 0.020709 0.468712
vt 0.020709 0.468712
vt 0.036549 0.468712
vt 0.065491 0.468712
vt 0.102530 0.468712
vt 0.141261 0.468712
vt 0.174988 0.468712
vt 0.197880 0.468712
vt 0.197880 0.977683
vt 0.205977 0.977683
vt 0.174988 0.977683
vt 0.141261 0.977683
vt 0.102530 0.977683
vt 0.065491 0.977683
vt 0.036549 0.977683
vt 0.020709 0.977683
vt 0.020709 0.977683
vt 0.036549 0.977683
vt 0.065491 0.977683
vt 0.102530 0.977683
vt 0.141261 0.977683
vt 0.174988 0.977683
vt 0.197880 0.977683
s 1
usemtl Lorenna_Lips
f 35/35/1 58/58/2 34/34/3
f 23/23/4 40/40/5 21/21/6
f 4/4/7 5/5/8 3/3/9
f 1/1/10 47/47/11 2/2/12
f 15/15/13 38/38/14 37/37/15
f 6/6/16 7/7/17 5/5/8
f 2/2/12 46/46/18 45/45/19
f 11/11/20 34/34/3 9/9/21
f 8/8/22 9/9/21 7/7/17
f 41/41/23 52/52/24 40/40/5
f 31/31/25 44/44/26 29/29/27
f 10/10/28 11/11/20 9/9/21
f 44/44/26 49/49/29 43/43/30
f 25/25/31 41/41/23 23/23/4
f 12/12/32 13/13/33 11/11/20
f 34/34/3 59/59/34 33/33/35
f 19/19/36 38/38/14 17/17/37
f 14/14/38 15/15/13 13/13/33
f 37/37/15 56/56/39 36/36/40
f 5/5/8 2/2/12 3/3/9
f 16/16/41 17/17/37 15/15/13
f 40/40/5 53/53/42 39/39/43
f 11/11/20 36/36/40 35/35/1
f 18/18/44 19/19/36 17/17/37
f 43/43/30 50/50/45 42/42/46
f 5/5/8 33/33/35 1/1/10
f 20/20/47 21/21/6 19/19/36
f 33/33/35 60/60/48 1/1/10
f 25/25/31 43/43/30 42/42/46
f 22/22/49 23/23/4 21/21/6
f 36/36/40 57/57/50 35/35/1
f 21/21/6 39/39/43 19/19/36
f 24/24/51 25/25/31 23/23/4
f 39/39/43 54/54/52 38/38/14
f 13/13/33 37/37/15 36/36/40
f 26/26/53 27/27/54 25/25/31
f 56/56/39 52/52/24 48/48/55
f 9/9/21 33/33/35 7/7/17
f 28/28/56 29/29/27 27/27/54
f 22/22/49 18/18/44 10/10/28
f 42/42/46 51/51/57 41/41/23
f 30/30/58 31/31/25 29/29/27
f 38/38/14 55/55/59 37/37/15
f 27/27/54 44/44/26 43/43/30
f 32/32/60 3/3/9 31/31/25
f 31/31/25 2/2/12 45/45/19
f 45/45/19 48/48/55 44/44/26
f 35/35/1 57/57/50 58/58/2
f 23/23/4 41/41/23 40/40/5
f 4/4/7 6/6/16 5/5/8
f 1/1/10 60/60/48 47/47/11
f 15/15/13 17/17/37 38/38/14
f 6/6/16 8/8/22 7/7/17
f 2/2/12 47/47/11 46/46/18
f 11/11/20 35/35/1 34/34/3
f 8/8/22 10/10/28 9/9/21
f 41/41/23 51/51/57 52/52/24
f 31/31/25 45/45/19 44/44/26
f 10/10/28 12/12/32 11/11/20
f 44/44/26 48/48/55 49/49/29
f 25/25/31 42/42/46 41/41/23
f 12/12/32 14/14/38 13/13/33
f 34/34/3 58/58/2 59/59/34
f 19/19/36 39/39/43 38/38/14
f 14/14/38 16/16/41 15/15/13
f 37/37/15 55/55/59 56/56/39
f 5/5/8 1/1/10 2/2/12
f 16/16/41 18/18/44 17/17/37
f 40/40/5 52/52/24 53/53/42
f 11/11/20 13/13/33 36/36/40
f 18/18/44 20/20/47 19/19/36
f 43/43/30 49/49/29 50/50/45
f 5/5/8 7/7/17 33/33/35
f 20/20/47 22/22/49 21/21/6
f 33/33/35 59/59/34 60/60/48
f 25/25/31 27/27/54 43/43/30
f 22/22/49 24/24/51 23/23/4
f 36/36/40 56/56/39 57/57/50
f 21/21/6 40/40/5 39/39/43
f 24/24/51 26/26/53 25/25/31
f 39/39/43 53/53/42 54/54/52
f 13/13/33 15/15/13 37/37/15
f 26/26/53 28/28/56 27/27/54
f 46/46/18 47/47/11 60/60/48
f 60/60/48 59/59/34 58/58/2
f 58/58/2 57/57/50 56/56/39
f 56/56/39 55/55/59 54/54/52
f 54/54/52 53/53/42 52/52/24
f 52/52/24 51/51/57 50/50/45
f 50/50/45 49/49/29 52/52/24
f 49/49/29 48/48/55 52/52/24
f 48/48/55 46/46/18 60/60/48
f 60/60/48 58/58/2 48/48/55
f 58/58/2 56/56/39 48/48/55
f 56/56/39 54/54/52 52/52/24
f 9/9/21 34/34/3 33/33/35
f 28/28/56 30/30/58 29/29/27
f 8/8/22 6/6/16 10/10/28
f 6/6/16 4/4/7 10/10/28
f 4/4/7 32/32/60 30/30/58
f 30/30/58 28/28/56 26/26/53
f 26/26/53 24/24/51 22/22/49
f 22/22/49 20/20/47 18/18/44
f 18/18/44 16/16/41 10/10/28
f 16/16/41 14/14/38 10/10/28
f 14/14/38 12/12/32 10/10/28
f 4/4/7 30/30/58 10/10/28
f 30/30/58 26/26/53 10/10/28
f 26/26/53 22/22/49 10/10/28
f 42/42/46 50/50/45 51/51/57
f 30/30/58 32/32/60 31/31/25
f 38/38/14 54/54/52 55/55/59
f 27/27/54 29/29/27 44/44/26
f 32/32/60 4/4/7 3/3/9
f 31/31/25 3/3/9 2/2/12
f 45/45/19 46/46/18 48/48/55
