# Blender 3.3.1
# www.blender.org
mtllib FlowerPoint.mtl
o FlowerPoint
v -1.000000 -1.000000 4.053709
v -1.000000 1.000000 4.053709
v -1.000000 -1.000000 -4.053709
v -1.000000 1.000000 -4.053709
v 1.000000 -1.000000 4.053709
v 1.000000 1.000000 4.053709
v 1.000000 -1.000000 -4.053709
v 1.000000 1.000000 -4.053709
vn -0.5774 -0.5774 0.5774
vn -0.5774 0.5774 0.5774
vn -0.5774 0.5774 -0.5774
vn -0.5774 -0.5774 -0.5774
vn 0.5774 0.5774 -0.5774
vn 0.5774 -0.5774 -0.5774
vn 0.5774 0.5774 0.5774
vn 0.5774 -0.5774 0.5774
vt 0.727026 0.530214
vt 0.732632 0.489611
vt 0.001053 0.685682
vt 0.727026 0.684088
vt 0.732632 0.736898
vt 0.001698 0.528044
vt 0.001455 0.530214
vt 0.998459 0.751407
vt 0.727416 0.685682
vt 0.001455 0.684088
vt 0.998459 0.997949
vt 0.727242 0.528044
vt 0.001470 0.843964
vt 0.999032 0.489611
vt 0.001053 0.840786
vt 0.001470 0.998727
vt 0.999032 0.736898
vt 0.001698 0.373370
vt 0.733193 0.751407
vt 0.727004 0.843964
vt 0.727416 0.840786
vt 0.733193 0.997949
vt 0.727004 0.998727
vt 0.727242 0.373370
s 1
usemtl FlowerPoint
f 1/1/1 2/4/2 4/10/3 3/7/4
f 3/8/4 4/11/3 8/22/5 7/19/6
f 7/20/6 8/23/5 6/16/7 5/13/8
f 5/14/8 6/17/7 2/5/2 1/2/1
f 3/9/4 7/21/6 5/15/8 1/3/1
f 8/24/5 4/12/3 2/6/2 6/18/7
