# Blender 3.3.1
# www.blender.org
mtllib FlowerPoint-tube.mtl
o FlowerPoint-tube
v -0.498190 0.000004 1.709118
v -0.498190 0.000004 -1.256315
v -0.455096 -0.103458 1.709118
v -0.455096 -0.202736 -1.256315
v -0.333266 -0.189032 1.709118
v -0.333266 -0.370421 -1.256315
v -0.153765 -0.241919 1.709118
v -0.153765 -0.474056 -1.256315
v 0.052369 -0.252975 1.709118
v 0.052369 -0.495721 -1.256315
v 0.249494 -0.220289 1.709118
v 0.249494 -0.431672 -1.256315
v 0.403526 -0.149512 1.709118
v 0.403526 -0.292981 -1.256316
v 0.487830 -0.052883 1.709118
v 0.487830 -0.103631 -1.256316
v 0.487830 0.052892 1.709118
v 0.487830 0.103639 -1.256316
v 0.403526 0.149521 1.709118
v 0.403525 0.292989 -1.256316
v 0.249494 0.220298 1.709118
v 0.249494 0.431680 -1.256315
v 0.052369 0.252984 1.709118
v 0.052369 0.495730 -1.256315
v -0.153765 0.241928 1.709118
v -0.153766 0.474064 -1.256315
v -0.333266 0.189040 1.709118
v -0.333266 0.370429 -1.256315
v -0.455096 0.103467 1.709118
v -0.455096 0.202744 -1.256315
v -0.240311 -0.107108 -1.384331
v -0.263079 0.000004 -1.384331
v -0.175946 -0.195699 -1.384331
v -0.081112 -0.250452 -1.384331
v 0.027793 -0.261898 -1.384331
v 0.131938 -0.228059 -1.384331
v 0.213316 -0.154786 -1.384331
v 0.257856 -0.054748 -1.384331
v 0.257856 0.054757 -1.384331
v 0.213316 0.154794 -1.384331
v 0.131938 0.228067 -1.384331
v 0.027793 0.261906 -1.384331
v -0.081112 0.250460 -1.384331
v -0.175946 0.195707 -1.384331
v -0.240311 0.107116 -1.384331
v -0.240311 -0.107108 -1.506252
v -0.263079 0.000004 -1.506252
v -0.175946 -0.195699 -1.506252
v -0.081112 -0.250452 -1.506252
v 0.027793 -0.261898 -1.506252
v 0.131938 -0.228059 -1.506252
v 0.213316 -0.154786 -1.506252
v 0.257856 -0.054748 -1.506252
v 0.257856 0.054757 -1.506252
v 0.213316 0.154794 -1.506252
v 0.131938 0.228067 -1.506252
v 0.027793 0.261906 -1.506252
v -0.081112 0.250460 -1.506252
v -0.175946 0.195707 -1.506252
v -0.240311 0.107116 -1.506252
v -0.192963 -0.086028 -1.507020
v -0.211250 0.000004 -1.507020
v -0.141265 -0.157184 -1.507020
v -0.065095 -0.201161 -1.507020
v 0.022377 -0.210355 -1.507020
v 0.106026 -0.183175 -1.507020
v 0.171389 -0.124323 -1.507020
v 0.207163 -0.043973 -1.507020
v 0.207163 0.043981 -1.507020
v 0.171389 0.124331 -1.507020
v 0.106026 0.183184 -1.507020
v 0.022377 0.210363 -1.507020
v -0.065095 0.201169 -1.507020
v -0.141265 0.157192 -1.507020
v -0.192963 0.086036 -1.507020
v -0.192963 -0.086028 -1.595013
v -0.211250 0.000004 -1.595013
v -0.141265 -0.157184 -1.595013
v -0.065095 -0.201161 -1.595013
v 0.022377 -0.210355 -1.595013
v 0.106026 -0.183175 -1.595013
v 0.171389 -0.124323 -1.595013
v 0.207163 -0.043973 -1.595013
v 0.207163 0.043981 -1.595013
v 0.171389 0.124331 -1.595013
v 0.106026 0.183184 -1.595013
v 0.022377 0.210363 -1.595013
v -0.065095 0.201169 -1.595013
v -0.141265 0.157192 -1.595013
v -0.192963 0.086036 -1.595013
v -0.498190 0.000005 2.730905
v -0.455096 -0.054486 2.730905
v -0.333266 -0.099554 2.730905
v -0.153765 -0.127408 2.730905
v 0.052369 -0.133231 2.730905
v 0.249494 -0.116016 2.730905
v 0.403526 -0.078740 2.730905
v 0.487830 -0.027849 2.730905
v 0.487830 0.027859 2.730905
v 0.403526 0.078750 2.730905
v 0.249494 0.116026 2.730905
v 0.052369 0.133240 2.730905
v -0.153765 0.127417 2.730905
v -0.333266 0.099563 2.730905
v -0.455096 0.054495 2.730905
v -0.498190 0.000004 0.226401
v -0.455096 -0.141386 0.226401
v -0.333266 -0.258328 0.226401
v -0.153765 -0.330602 0.226401
v 0.052369 -0.345711 0.226401
v 0.249494 -0.301043 0.226401
v 0.403526 -0.204321 0.226401
v 0.487830 -0.072270 0.226401
v 0.487830 0.072279 0.226401
v 0.403526 0.204330 0.226401
v 0.249494 0.301052 0.226401
v 0.052369 0.345720 0.226401
v -0.153765 0.330610 0.226401
v -0.333266 0.258336 0.226401
v -0.455096 0.141394 0.226401
v -0.498190 0.000005 3.874770
v -0.455096 -0.023105 3.874770
v -0.333266 -0.053315 3.874770
v -0.153765 -0.054236 3.874770
v 0.052369 -0.056502 3.874770
v 0.249495 -0.053258 3.874770
v 0.403526 -0.053861 3.874770
v 0.487830 -0.011808 3.874770
v 0.487830 0.011818 3.874770
v 0.403526 0.053423 3.874770
v 0.249495 0.053307 3.874770
v 0.052369 0.056512 3.874770
v -0.153765 0.054042 3.874770
v -0.333266 0.053324 3.874770
v -0.455096 0.023115 3.874770
v -0.498336 0.056604 3.874539
v -0.498336 -0.056764 3.874539
v 0.488359 0.056604 3.874539
v 0.488359 -0.056763 3.874539
v -0.213097 -0.094992 -1.558910
v -0.233290 0.000004 -1.558910
v -0.156013 -0.173563 -1.558910
v -0.071905 -0.222122 -1.558910
v 0.024681 -0.232274 -1.558910
v 0.117047 -0.202263 -1.558910
v 0.189220 -0.137277 -1.558910
v 0.228722 -0.048555 -1.558910
v 0.228722 0.048564 -1.558910
v 0.189220 0.137286 -1.558910
v 0.117047 0.202271 -1.558910
v 0.024681 0.232282 -1.558910
v -0.071905 0.222131 -1.558910
v -0.156013 0.173571 -1.558910
v -0.213098 0.095001 -1.558910
v -0.176566 -0.078728 -2.324067
v -0.193301 0.000004 -2.324067
v -0.129255 -0.143846 -2.324067
v -0.059548 -0.184092 -2.324067
v 0.020502 -0.192505 -2.324067
v 0.097053 -0.167632 -2.324067
v 0.156869 -0.113773 -2.324067
v 0.189608 -0.040242 -2.324067
v 0.189608 0.040249 -2.324067
v 0.156869 0.113781 -2.324067
v 0.097053 0.167640 -2.324067
v 0.020502 0.192513 -2.324067
v -0.059548 0.184099 -2.324067
v -0.129255 0.143854 -2.324067
v -0.176566 0.078735 -2.324067
v -0.498336 0.006937 4.026284
v -0.498336 0.056604 3.976617
v -0.498336 -0.056764 3.976617
v -0.498336 -0.007096 4.026284
v 0.488359 0.056604 3.976617
v 0.488359 0.006937 4.026284
v 0.488359 -0.007096 4.026284
v 0.488359 -0.056763 3.976617
vn -1.0000 -0.0000 0.0048
vn -0.8757 -0.0000 -0.4829
vn -0.7875 -0.3932 -0.4746
vn -0.8570 -0.5149 0.0193
vn -0.5573 -0.6933 -0.4570
vn -0.5544 -0.8308 0.0492
vn -0.2501 -0.8611 -0.4426
vn -0.2339 -0.9695 0.0727
vn 0.0840 -0.8943 -0.4394
vn 0.0776 -0.9939 0.0779
vn 0.4097 -0.7942 -0.4487
vn 0.3929 -0.9174 0.0628
vn 0.6860 -0.5586 -0.4661
vn 0.7134 -0.6999 0.0339
vn 0.8530 -0.2034 -0.4807
vn 0.9613 -0.2752 0.0087
vn 0.8530 0.2034 -0.4807
vn 0.9613 0.2752 0.0087
vn 0.6860 0.5586 -0.4661
vn 0.7134 0.6999 0.0339
vn 0.4097 0.7942 -0.4487
vn 0.3929 0.9174 0.0628
vn 0.0840 0.8943 -0.4394
vn 0.0776 0.9939 0.0779
vn -0.2501 0.8611 -0.4426
vn -0.2339 0.9695 0.0727
vn -0.5573 0.6933 -0.4570
vn -0.5544 0.8308 0.0492
vn 0.0878 -0.8352 -0.5429
vn 0.4199 -0.7273 -0.5429
vn -0.7875 0.3932 -0.4746
vn -0.8570 0.5149 0.0193
vn 0.2842 -0.9561 0.0722
vn 0.5820 -0.8120 0.0440
vn 0.4085 -0.9117 0.0433
vn 0.1578 -0.9848 0.0724
vn 0.8214 -0.1746 -0.5429
vn 0.6794 -0.4936 -0.5429
vn 0.6090 -0.4425 -0.6583
vn 0.7363 -0.1565 -0.6583
vn 0.6794 0.4936 -0.5429
vn 0.4199 0.7273 -0.5429
vn -0.7672 0.3416 -0.5429
vn -0.8398 -0.0000 -0.5429
vn -0.5619 -0.6241 -0.5429
vn -0.2595 -0.7987 -0.5429
vn 0.8214 0.1746 -0.5429
vn -0.7672 -0.3416 -0.5429
vn -0.2595 0.7987 -0.5429
vn -0.5619 0.6241 -0.5429
vn 0.0878 0.8352 -0.5429
vn -0.6877 0.3062 -0.6583
vn -0.5037 0.5594 -0.6583
vn -0.4415 0.4903 -0.7515
vn -0.6027 0.2684 -0.7515
vn -0.7528 -0.0000 -0.6583
vn 0.7363 0.1565 -0.6583
vn -0.6877 -0.3062 -0.6583
vn 0.6090 0.4425 -0.6583
vn -0.5037 -0.5594 -0.6583
vn 0.3764 0.6519 -0.6583
vn -0.2326 -0.7159 -0.6583
vn 0.0787 0.7487 -0.6583
vn 0.0787 -0.7487 -0.6583
vn -0.2326 0.7159 -0.6583
vn 0.3764 -0.6519 -0.6583
vn 0.5338 -0.3878 -0.7515
vn 0.3299 -0.5714 -0.7515
vn 0.0725 -0.1255 0.9894
vn 0.1173 -0.0852 0.9894
vn 0.6454 -0.1372 -0.7515
vn -0.6598 -0.0000 -0.7515
vn 0.6454 0.1372 -0.7515
vn -0.6027 -0.2684 -0.7515
vn 0.5338 0.3878 -0.7515
vn -0.4415 -0.4903 -0.7515
vn 0.3299 0.5714 -0.7515
vn -0.2039 -0.6275 -0.7515
vn 0.0690 0.6562 -0.7515
vn 0.0690 -0.6562 -0.7515
vn -0.2039 0.6275 -0.7515
vn -0.0970 0.1077 0.9894
vn -0.1324 0.0590 0.9894
vn 0.1418 -0.0301 0.9894
vn -0.1450 -0.0000 0.9894
vn 0.1418 0.0301 0.9894
vn -0.1324 -0.0590 0.9894
vn 0.1173 0.0852 0.9894
vn -0.0970 -0.1077 0.9894
vn 0.0725 0.1255 0.9894
vn -0.0448 -0.1379 0.9894
vn 0.0152 0.1442 0.9894
vn 0.0152 -0.1442 0.9894
vn -0.0448 0.1379 0.9894
vn -0.3690 -0.1643 0.9148
vn -0.2703 -0.3002 0.9148
vn 0.3951 0.0840 0.9148
vn 0.3268 0.2374 0.9148
vn -0.4039 -0.0000 0.9148
vn 0.3951 -0.0840 0.9148
vn -0.3690 0.1643 0.9148
vn 0.3268 -0.2374 0.9148
vn -0.2703 0.3002 0.9148
vn 0.2020 -0.3498 0.9148
vn -0.1248 0.3842 0.9148
vn 0.0422 -0.4017 0.9148
vn 0.0422 0.4017 0.9148
vn -0.1248 -0.3842 0.9148
vn 0.2020 0.3498 0.9148
vn 0.8882 -0.4592 0.0143
vn 0.8629 -0.5052 0.0090
vn 0.3067 -0.9514 0.0273
vn 0.2842 0.9561 0.0722
vn 0.0537 0.9949 0.0854
vn 0.0291 0.9958 0.0873
vn 0.1582 0.9848 0.0724
vn -0.1641 -0.9831 0.0810
vn 0.0537 -0.9949 0.0854
vn 0.0293 -0.9958 0.0873
vn -0.0903 -0.9925 0.0824
vn 0.9314 0.3638 0.0136
vn 0.5820 0.8120 0.0440
vn 0.4084 0.9118 0.0434
vn 0.8880 0.4597 0.0144
vn -0.4212 0.9050 0.0596
vn -0.7650 0.6435 0.0271
vn -0.6049 0.7957 0.0295
vn -0.2700 0.9609 0.0609
vn -0.7650 -0.6435 0.0271
vn -0.4212 -0.9050 0.0596
vn -0.2701 -0.9609 0.0609
vn -0.6049 -0.7957 0.0295
vn 0.9314 -0.3638 0.0136
vn -0.1641 0.9831 0.0810
vn -0.0903 0.9925 0.0824
vn -1.0000 -0.0000 0.0086
vn -0.9999 -0.0000 0.0140
vn -0.6303 -0.7173 0.2971
vn -0.5774 -0.5774 -0.5774
vn 0.5774 -0.5774 -0.5774
vn 0.6303 -0.7173 0.2971
vn -0.9999 -0.0000 0.0152
vn -0.4948 0.8687 0.0217
vn 0.8624 0.5061 0.0092
vn -0.4948 -0.8687 0.0217
vn 0.3064 0.9515 0.0275
vn -0.1889 -0.9811 0.0424
vn 0.0857 0.9951 0.0495
vn -0.0497 -0.9970 0.0587
vn 0.0158 0.9979 0.0631
vn 0.0161 -0.9979 0.0631
vn -0.0497 0.9970 0.0588
vn 0.0850 -0.9952 0.0494
vn -0.1886 0.9811 0.0425
vn -0.6303 -0.2971 0.7173
vn -0.6303 0.2971 0.7173
vn -0.6303 0.7173 0.2971
vn -0.5774 0.5773 -0.5774
vn 0.5773 0.5774 -0.5774
vn 0.6303 0.7173 0.2971
vn 0.6303 0.2971 0.7173
vn 0.6303 -0.2971 0.7173
vn -0.2259 0.6953 -0.6823
vn -0.4892 0.5433 -0.6823
vn -0.6678 -0.2973 -0.6823
vn -0.7310 -0.0000 -0.6823
vn -0.6678 0.2973 -0.6823
vn 0.0764 0.7270 -0.6823
vn 0.3655 0.6331 -0.6823
vn 0.5914 0.4297 -0.6823
vn 0.7151 0.1520 -0.6823
vn 0.7151 -0.1520 -0.6823
vn 0.5914 -0.4297 -0.6823
vn 0.3655 -0.6331 -0.6823
vn 0.0764 -0.7270 -0.6823
vn -0.2259 -0.6953 -0.6823
vn -0.4892 -0.5433 -0.6823
vt 0.265067 0.997305
vt 0.265085 0.000228
vt 0.626032 0.000228
vt 0.627586 0.997305
vt 0.633621 0.795503
vt 0.265085 0.021348
vt 0.626032 0.021346
vt 0.633621 0.861336
vt 0.265085 0.081052
vt 0.626032 0.081052
vt 0.633621 0.927170
vt 0.265085 0.169021
vt 0.626032 0.169021
vt 0.633621 0.993004
vt 0.633621 0.005496
vt 0.265085 0.270043
vt 0.626032 0.270041
vt 0.633621 0.071330
vt 0.265085 0.366649
vt 0.626032 0.366649
vt 0.633621 0.137164
vt 0.265085 0.442136
vt 0.626032 0.442136
vt 0.633621 0.202998
vt 0.265067 0.489895
vt 0.265085 0.483450
vt 0.626032 0.483450
vt 0.627586 0.489895
vt 0.633621 0.268831
vt 0.265067 0.489895
vt 0.627586 0.489895
vt 0.633621 0.334665
vt 0.265067 0.533276
vt 0.627586 0.533276
vt 0.633621 0.400499
vt 0.265067 0.612543
vt 0.627586 0.612543
vt 0.633621 0.466333
vt 0.265067 0.713986
vt 0.627586 0.713986
vt 0.633621 0.532167
vt 0.265067 0.820062
vt 0.627586 0.820062
vt 0.633621 0.598001
vt 0.265067 0.912433
vt 0.627586 0.912433
vt 0.633621 0.663835
vt 0.265067 0.975129
vt 0.627586 0.975129
vt 0.633621 0.729669
vt 0.686093 0.861336
vt 0.686093 0.795503
vt 0.686093 0.927170
vt 0.686093 0.993004
vt 0.686093 0.005496
vt 0.686093 0.071330
vt 0.686093 0.137164
vt 0.686093 0.202998
vt 0.686093 0.268831
vt 0.686093 0.334665
vt 0.686093 0.400499
vt 0.686093 0.466333
vt 0.686093 0.532167
vt 0.686093 0.598001
vt 0.686093 0.663835
vt 0.686093 0.729669
vt 0.736067 0.861336
vt 0.730567 0.271313
vt 0.736067 0.795503
vt 0.731206 0.253158
vt 0.736067 0.927170
vt 0.730826 0.300748
vt 0.736067 0.993004
vt 0.736067 0.005496
vt 0.732447 0.386565
vt 0.736067 0.071330
vt 0.732636 0.611582
vt 0.736067 0.137164
vt 0.731360 0.692672
vt 0.736067 0.202998
vt 0.731354 0.721278
vt 0.736067 0.268831
vt 0.732109 0.739244
vt 0.736067 0.334665
vt 0.730867 0.755859
vt 0.736067 0.400499
vt 0.736226 0.777815
vt 0.736067 0.466333
vt 0.736306 0.823936
vt 0.736067 0.532167
vt 0.735168 0.994946
vt 0.735168 0.007437
vt 0.736067 0.598001
vt 0.735936 0.170813
vt 0.736067 0.663835
vt 0.735551 0.215053
vt 0.736067 0.729669
vt 0.730003 0.236600
vt 0.633994 0.271880
vt 0.657092 0.993757
vt 0.656145 0.006248
vt 0.632844 0.253659
vt 0.654812 0.928841
vt 0.633664 0.301516
vt 0.653854 0.071918
vt 0.636576 0.387585
vt 0.651728 0.137640
vt 0.636728 0.610552
vt 0.649850 0.203484
vt 0.634093 0.691917
vt 0.648289 0.269470
vt 0.634625 0.720715
vt 0.647097 0.335588
vt 0.635008 0.738742
vt 0.646311 0.401805
vt 0.634255 0.755336
vt 0.645956 0.468073
vt 0.633854 0.777170
vt 0.646046 0.534336
vt 0.634232 0.822986
vt 0.646577 0.600533
vt 0.637857 0.995010
vt 0.637857 0.007502
vt 0.647537 0.666606
vt 0.633935 0.171744
vt 0.648896 0.732502
vt 0.633311 0.215689
vt 0.650607 0.798180
vt 0.633561 0.237120
vt 0.652608 0.863621
vt 0.721367 0.996420
vt 0.721345 0.004007
vt 0.818065 -0.002270
vt 0.818086 1.002697
vt 0.720886 0.929716
vt 0.817605 0.935149
vt 0.720808 0.070885
vt 0.817527 0.065454
vt 0.720668 0.137421
vt 0.817387 0.132832
vt 0.720152 0.203724
vt 0.816871 0.199974
vt 0.720041 0.269870
vt 0.816761 0.266956
vt 0.719568 0.335912
vt 0.816287 0.333833
vt 0.720288 0.401883
vt 0.817007 0.400640
vt 0.719881 0.467807
vt 0.816601 0.467397
vt 0.719900 0.533699
vt 0.816620 0.534122
vt 0.720343 0.599571
vt 0.817062 0.600828
vt 0.719654 0.665441
vt 0.816374 0.667531
vt 0.720150 0.731335
vt 0.816870 0.734259
vt 0.720271 0.797296
vt 0.816990 0.801054
vt 0.720778 0.863390
vt 0.817498 0.867984
vt 0.140156 0.997305
vt 0.140715 0.000228
vt 0.140715 0.021348
vt 0.140715 0.081052
vt 0.140715 0.169021
vt 0.140715 0.270043
vt 0.140715 0.366649
vt 0.140715 0.442136
vt 0.140715 0.483450
vt 0.140156 0.489895
vt 0.140156 0.489895
vt 0.140156 0.533276
vt 0.140156 0.612543
vt 0.140156 0.713985
vt 0.140156 0.820062
vt 0.140156 0.912433
vt 0.140156 0.975129
vt 0.446327 0.997305
vt 0.445559 0.000228
vt 0.445559 0.021346
vt 0.445559 0.081052
vt 0.445559 0.169021
vt 0.445559 0.270041
vt 0.445559 0.366649
vt 0.445559 0.442136
vt 0.446327 0.489895
vt 0.445559 0.483450
vt 0.446327 0.489895
vt 0.446327 0.533276
vt 0.446327 0.612543
vt 0.446327 0.713986
vt 0.446327 0.820062
vt 0.446327 0.912433
vt 0.446327 0.975129
vt 0.001235 0.997305
vt 0.001486 0.000228
vt 0.001486 0.021348
vt 0.001486 0.081052
vt 0.001486 0.169021
vt 0.001486 0.270043
vt 0.001486 0.366649
vt 0.001486 0.442137
vt 0.001486 0.483451
vt 0.001235 0.489895
vt 0.001235 0.489895
vt 0.001235 0.533276
vt 0.001235 0.612543
vt 0.001235 0.713985
vt 0.001235 0.820062
vt 0.001235 0.912433
vt 0.001235 0.975129
vt 0.999818 0.887316
vt 0.011140 0.919272
vt 0.978146 0.887316
vt 0.011140 0.919272
vt 0.999818 0.887316
vt 0.011140 0.549845
vt 0.978146 0.887316
vt 0.011140 0.549845
vt 0.818065 -0.002270
vt 0.818086 1.002697
vt 0.745128 1.002697
vt 0.745106 -0.002270
vt 0.817605 0.935149
vt 0.744647 0.935149
vt 0.817527 0.065454
vt 0.744569 0.065454
vt 0.817387 0.132832
vt 0.744429 0.132832
vt 0.816871 0.199974
vt 0.743913 0.199974
vt 0.816761 0.266956
vt 0.743802 0.266956
vt 0.816287 0.333833
vt 0.743329 0.333833
vt 0.817007 0.400640
vt 0.744049 0.400640
vt 0.816601 0.467397
vt 0.743643 0.467397
vt 0.816620 0.534122
vt 0.743662 0.534122
vt 0.817062 0.600828
vt 0.744104 0.600828
vt 0.816374 0.667531
vt 0.743415 0.667531
vt 0.816870 0.734259
vt 0.743912 0.734259
vt 0.816990 0.801054
vt 0.744032 0.801054
vt 0.817498 0.867984
vt 0.744539 0.867984
vt 0.991010 0.991276
vt 0.955726 1.000230
vt 0.955720 0.000582
vt 0.982480 0.999846
vt 0.955748 0.933646
vt 0.997318 0.975298
vt 0.955275 0.067101
vt 0.999710 0.954675
vt 0.955645 0.133754
vt 0.999479 0.932974
vt 0.955226 0.200414
vt 0.994959 0.913946
vt 0.955444 0.267089
vt 0.987533 0.900882
vt 0.955878 0.333780
vt 0.978487 0.896040
vt 0.955681 0.400484
vt 0.969386 0.900258
vt 0.955480 0.467192
vt 0.961800 0.912806
vt 0.955486 0.533897
vt 0.957044 0.931515
vt 0.955798 0.600587
vt 0.957181 0.953150
vt 0.955212 0.667253
vt 0.958677 0.973970
vt 0.955625 0.733891
vt 0.964784 0.990374
vt 0.955429 0.800497
vt 0.973203 0.999527
vt 0.955678 0.867078
vt 0.990323 0.782716
vt 0.003646 0.919272
vt 0.999818 0.786917
vt 0.006099 0.919272
vt 0.978146 0.786917
vt 0.006099 0.919272
vt 0.987641 0.782716
vt 0.003646 0.919272
vt 0.999818 0.786917
vt 0.006099 0.549845
vt 0.990323 0.782716
vt 0.003646 0.549845
vt 0.987641 0.782716
vt 0.003646 0.549845
vt 0.978146 0.786917
vt 0.006099 0.549845
s 1
usemtl FlowerPoint-tube
f 106/181/1 2/3/2 4/7/3 107/182/4
f 107/182/4 4/7/3 6/10/5 108/183/6
f 108/183/6 6/10/5 8/13/7 109/184/8
f 109/184/8 8/13/7 10/17/9 110/185/10
f 110/185/10 10/17/9 12/20/11 111/186/12
f 111/186/12 12/20/11 14/23/13 112/187/14
f 112/187/14 14/23/13 16/27/15 113/189/16
f 113/188/16 16/28/15 18/31/17 114/190/18
f 114/190/18 18/31/17 20/34/19 115/191/20
f 115/191/20 20/34/19 22/37/21 116/192/22
f 116/192/22 22/37/21 24/40/23 117/193/24
f 117/193/24 24/40/23 26/43/25 118/194/26
f 118/194/26 26/43/25 28/46/27 119/195/28
f 12/21/11 10/18/9 35/56/29 36/57/30
f 119/195/28 28/46/27 30/49/31 120/196/32
f 120/196/32 30/49/31 2/4/2 106/180/1
f 11/19/33 13/22/34 97/170/35 96/169/36
f 38/59/37 37/58/38 52/80/39 53/82/40
f 22/38/21 20/35/19 40/61/41 41/62/42
f 2/5/2 30/50/31 45/66/43 32/52/44
f 8/14/7 6/11/5 33/53/45 34/54/46
f 18/32/17 16/29/15 38/59/37 39/60/47
f 4/8/3 2/5/2 32/52/44 31/51/48
f 28/47/27 26/44/25 43/64/49 44/65/50
f 14/24/13 12/21/11 36/57/30 37/58/38
f 24/41/23 22/38/21 41/62/42 42/63/51
f 10/18/9 8/15/7 34/55/46 35/56/29
f 20/35/19 18/32/17 39/60/47 40/61/41
f 30/50/31 28/47/27 44/65/50 45/66/43
f 6/11/5 4/8/3 31/51/48 33/53/45
f 16/29/15 14/24/13 37/58/38 38/59/37
f 26/44/25 24/41/23 42/63/51 43/64/49
f 60/98/52 59/96/53 74/127/54 75/129/55
f 32/52/44 45/66/43 60/97/52 47/69/56
f 39/60/47 38/59/37 53/82/40 54/84/57
f 31/51/48 32/52/44 47/69/56 46/67/58
f 40/61/41 39/60/47 54/84/57 55/86/59
f 33/53/45 31/51/48 46/67/58 48/71/60
f 41/62/42 40/61/41 55/86/59 56/88/61
f 34/54/46 33/53/45 48/71/60 49/73/62
f 42/63/51 41/62/42 56/88/61 57/90/63
f 35/56/29 34/55/46 49/74/62 50/76/64
f 43/64/49 42/63/51 57/90/63 58/93/65
f 36/57/30 35/56/29 50/76/64 51/78/66
f 44/65/50 43/64/49 58/93/65 59/95/53
f 37/58/38 36/57/30 51/78/66 52/80/39
f 45/66/43 44/65/50 59/95/53 60/97/52
f 67/113/67 66/111/68 81/143/69 82/145/70
f 53/83/40 52/81/39 67/112/67 68/114/71
f 47/70/56 60/98/52 75/129/55 62/102/72
f 54/85/57 53/83/40 68/114/71 69/116/73
f 46/68/58 47/70/56 62/102/72 61/99/74
f 55/87/59 54/85/57 69/116/73 70/118/75
f 48/72/60 46/68/58 61/99/74 63/104/76
f 56/89/61 55/87/59 70/118/75 71/120/77
f 49/75/62 48/72/60 63/104/76 64/106/78
f 57/91/63 56/89/61 71/120/77 72/122/79
f 50/77/64 49/75/62 64/106/78 65/108/80
f 58/94/65 57/92/63 72/123/79 73/125/81
f 51/79/66 50/77/64 65/108/80 66/110/68
f 59/96/53 58/94/65 73/125/81 74/127/54
f 52/81/39 51/79/66 66/110/68 67/112/67
f 75/130/55 74/128/54 89/159/82 90/161/83
f 68/115/71 67/113/67 82/145/70 83/147/84
f 62/103/72 75/130/55 90/161/83 77/135/85
f 69/117/73 68/115/71 83/147/84 84/149/86
f 61/100/74 62/103/72 77/135/85 76/131/87
f 70/119/75 69/117/73 84/149/86 85/151/88
f 63/105/76 61/101/74 76/132/87 78/137/89
f 71/121/77 70/119/75 85/151/88 86/153/90
f 64/107/78 63/105/76 78/137/89 79/139/91
f 72/124/79 71/121/77 86/153/90 87/155/92
f 65/109/80 64/107/78 79/139/91 80/141/93
f 73/126/81 72/124/79 87/155/92 88/157/94
f 66/111/68 65/109/80 80/141/93 81/143/69
f 74/128/54 73/126/81 88/157/94 89/159/82
f 78/138/89 76/133/87 140/222/95 142/228/96
f 85/152/88 84/150/86 148/240/97 149/242/98
f 76/134/87 77/136/85 141/226/99 140/223/95
f 84/150/86 83/148/84 147/238/100 148/240/97
f 77/136/85 90/162/83 154/252/101 141/226/99
f 83/148/84 82/146/70 146/236/102 147/238/100
f 90/162/83 89/160/82 153/250/103 154/252/101
f 82/146/70 81/144/69 145/234/104 146/236/102
f 89/160/82 88/158/94 152/248/105 153/250/103
f 81/144/69 80/142/93 144/232/106 145/234/104
f 88/158/94 87/156/92 151/246/107 152/248/105
f 80/142/93 79/140/91 143/230/108 144/232/106
f 87/156/92 86/154/90 150/244/109 151/246/107
f 79/140/91 78/138/89 142/228/96 143/230/108
f 86/154/90 85/152/88 149/242/98 150/244/109
f 97/170/35 98/171/110 128/205/111 127/204/112
f 21/36/113 23/39/114 102/176/115 101/175/116
f 7/12/117 9/16/118 95/168/119 94/167/120
f 17/30/121 19/33/122 100/174/123 99/173/124
f 27/45/125 29/48/126 105/179/127 104/178/128
f 3/6/129 5/9/130 93/166/131 92/165/132
f 13/22/34 15/26/133 98/171/110 97/170/35
f 23/39/114 25/42/134 103/177/135 102/176/115
f 9/16/118 11/19/33 96/169/36 95/168/119
f 19/33/122 21/36/113 101/175/116 100/174/123
f 29/48/126 1/1/136 91/163/137 105/179/127
f 5/9/130 7/12/117 94/167/120 93/166/131
f 15/25/133 17/30/121 99/173/124 98/172/110
f 1/2/136 3/6/129 92/165/132 91/164/137
f 25/42/134 27/45/125 104/178/128 103/177/135
f 29/48/126 120/196/32 106/180/1 1/1/136
f 27/45/125 119/195/28 120/196/32 29/48/126
f 25/42/134 118/194/26 119/195/28 27/45/125
f 23/39/114 117/193/24 118/194/26 25/42/134
f 21/36/113 116/192/22 117/193/24 23/39/114
f 19/33/122 115/191/20 116/192/22 21/36/113
f 17/30/121 114/190/18 115/191/20 19/33/122
f 15/25/133 113/188/16 114/190/18 17/30/121
f 13/22/34 112/187/14 113/189/16 15/26/133
f 11/19/33 111/186/12 112/187/14 13/22/34
f 9/16/118 110/185/10 111/186/12 11/19/33
f 7/12/117 109/184/8 110/185/10 9/16/118
f 5/9/130 108/183/6 109/184/8 7/12/117
f 3/6/129 107/182/4 108/183/6 5/9/130
f 1/2/136 106/181/1 107/182/4 3/6/129
f 172/290/138 137/217/139 139/221/140 177/300/141
f 105/179/127 91/163/137 121/197/142 135/213/143
f 98/172/110 99/173/124 129/207/144 128/206/111
f 91/164/137 92/165/132 122/199/145 121/198/142
f 99/173/124 100/174/123 130/208/146 129/207/144
f 92/165/132 93/166/131 123/200/147 122/199/145
f 100/174/123 101/175/116 131/209/148 130/208/146
f 93/166/131 94/167/120 124/201/149 123/200/147
f 101/175/116 102/176/115 132/210/150 131/209/148
f 94/167/120 95/168/119 125/202/151 124/201/149
f 102/176/115 103/177/135 133/211/152 132/210/150
f 95/168/119 96/169/36 126/203/153 125/202/151
f 103/177/135 104/178/128 134/212/154 133/211/152
f 96/169/36 97/170/35 127/204/112 126/203/153
f 104/178/128 105/179/127 135/213/143 134/212/154
f 172/289/138 173/291/155 170/285/156 171/287/157 136/214/158 137/216/139
f 139/220/140 138/218/159 174/293/160 175/295/161 176/297/162 177/299/141
f 137/217/139 136/215/158 138/219/159 139/221/140
f 176/298/162 175/296/161 170/286/156 173/292/155
f 153/251/103 152/249/105 167/280/163 168/282/164
f 155/254/165 156/257/166 169/283/167 168/281/164 167/279/163 166/277/168 165/275/169 164/273/170 163/271/171 162/269/172 161/267/173 160/265/174 159/263/175 158/261/176 157/259/177
f 146/237/102 145/235/104 160/266/174 161/268/173
f 154/253/101 153/251/103 168/282/164 169/284/167
f 147/239/100 146/237/102 161/268/173 162/270/172
f 141/227/99 154/253/101 169/284/167 156/258/166
f 148/241/97 147/239/100 162/270/172 163/272/171
f 140/224/95 141/227/99 156/258/166 155/255/165
f 149/243/98 148/241/97 163/272/171 164/274/170
f 142/229/96 140/225/95 155/256/165 157/260/177
f 150/245/109 149/243/98 164/274/170 165/276/169
f 143/231/108 142/229/96 157/260/177 158/262/176
f 151/247/107 150/245/109 165/276/169 166/278/168
f 144/233/106 143/231/108 158/262/176 159/264/175
f 152/249/105 151/247/107 166/278/168 167/280/163
f 145/235/104 144/233/106 159/264/175 160/266/174
f 174/294/160 171/288/157 170/286/156 175/296/161
f 172/290/138 177/300/141 176/298/162 173/292/155
f 136/215/158 171/288/157 174/294/160 138/219/159
