# Blender 3.3.1
# www.blender.org
mtllib Pax_Ventris.mtl
o Pax_Ventris
v -1.000000 0.000029 1.000000
v -1.000000 4.004629 1.000000
v -1.000000 0.000029 -1.000000
v -1.000000 4.004629 -1.000000
v 1.000000 0.000029 1.000000
v 1.000000 4.004629 1.000000
v 1.000000 0.000029 -1.000000
v 1.000000 4.004629 -1.000000
v -1.000000 4.020077 1.000000
v -1.000000 4.020077 -1.000000
v 1.000000 4.020077 -1.000000
v 1.000000 4.020077 1.000000
v -0.871908 4.027237 -1.000000
v 0.834327 4.028996 -1.000000
v -0.331071 4.044926 -1.000000
v 0.293455 4.045570 -1.000000
v 0.834327 4.028996 1.000000
v -0.871908 4.027237 1.000000
v 0.293454 4.045570 1.000000
v -0.331071 4.044926 1.000000
vn -0.5774 -0.5774 0.5774
vn -0.7071 -0.0000 0.7071
vn -0.7071 -0.0000 -0.7071
vn -0.5774 -0.5774 -0.5774
vn 0.7071 -0.0000 -0.7071
vn 0.5774 -0.5774 -0.5774
vn 0.7071 -0.0000 0.7071
vn 0.5774 -0.5774 0.5774
vn 0.5912 0.5602 -0.5802
vn 0.5912 0.5602 0.5802
vn 0.0299 0.7091 0.7045
vn 0.0105 0.7106 0.7036
vn -0.0120 0.7105 0.7036
vn -0.0314 0.7090 0.7045
vn -0.5917 0.5595 0.5803
vn -0.5917 0.5595 -0.5803
vn -0.0314 0.7090 -0.7045
vn 0.0299 0.7091 -0.7045
vn -0.0120 0.7105 -0.7036
vn 0.0105 0.7106 -0.7036
vt 0.583061 0.000000
vt 0.589211 0.000787
vt 0.783309 0.036793
vt 0.589211 0.999224
vt 0.999548 0.001487
vt 0.583061 0.996157
vt 0.394086 0.000000
vt 0.387525 0.000138
vt 0.999963 0.036793
vt 0.394086 0.996157
vt 0.387525 0.999874
vt 0.392633 0.996157
vt 0.999548 0.001487
vt 0.002042 0.000000
vt 0.778011 0.000787
vt 0.783309 0.497340
vt 0.778011 0.999224
vt 0.002042 0.996157
vt 0.782218 0.001487
vt 0.198994 0.000138
vt 0.195258 0.000000
vt 0.999963 0.497340
vt 0.198994 0.999874
vt 0.195258 0.996157
vt 0.782218 0.001487
vt 0.999548 0.022979
vt 0.583061 1.000000
vt 0.785362 0.999504
vt 0.392633 1.000000
vt 0.999662 0.999504
vt 0.999548 0.022979
vt 0.195258 1.000000
vt 0.999662 0.502303
vt 0.782218 0.022979
vt 0.002042 1.000000
vt 0.782218 0.022979
vt 0.785362 0.502303
vt 0.999662 0.967660
vt 0.985629 0.029026
vt 0.999662 0.543489
vt 0.800221 0.030512
vt 0.999662 0.833208
vt 0.926859 0.035541
vt 0.999662 0.677950
vt 0.858995 0.036085
vt 0.800221 0.030512
vt 0.785362 0.543489
vt 0.985629 0.029026
vt 0.785362 0.967660
vt 0.858995 0.036085
vt 0.785362 0.677950
vt 0.926859 0.035541
vt 0.785362 0.833208
s 1
usemtl Pax_Ventris
f 1/1/1 2/6/2 4/10/3 3/7/4
f 3/8/4 4/11/3 8/23/5 7/20/6
f 7/21/6 8/24/5 6/18/7 5/14/8
f 5/15/8 6/17/7 2/4/2 1/2/1
f 3/9/4 7/22/6 5/16/8 1/3/1
f 6/18/7 8/24/5 11/32/9 12/35/10
f 2/5/2 6/19/7 12/36/10 17/46/11 19/50/12 20/52/13 18/48/14 9/26/15
f 4/12/3 2/6/2 9/27/15 10/29/16
f 18/49/14 13/38/17 10/30/16 9/28/15
f 11/33/9 14/40/18 17/47/11 12/37/10
f 13/38/17 18/49/14 20/53/13 15/42/19
f 15/42/19 20/53/13 19/51/12 16/44/20
f 16/44/20 19/51/12 17/47/11 14/40/18
f 8/25/5 4/13/3 10/31/16 13/39/17 15/43/19 16/45/20 14/41/18 11/34/9
